# WaveFront *.obj file (generated by Autodesk ATF)

mtllib body1_visual.mtl

g Body1

v -100.000000 -0.000000 3.000000
v -99.518473 -9.801714 3.000000
v -98.078528 -19.509032 3.000000
v -95.694034 -29.028468 3.000000
v -92.387953 -38.268343 3.000000
v -88.192126 -47.139674 3.000000
v -83.146961 -55.557023 3.000000
v -77.301045 -63.439328 3.000000
v -70.710678 -70.710678 3.000000
v -63.439328 -77.301045 3.000000
v -55.557023 -83.146961 3.000000
v -47.139674 -88.192126 3.000000
v -38.268343 -92.387953 3.000000
v -29.028468 -95.694034 3.000000
v -19.509032 -98.078528 3.000000
v -9.801714 -99.518473 3.000000
v 0.000000 -100.000000 3.000000
v 9.801714 -99.518473 3.000000
v 19.509032 -98.078528 3.000000
v 29.028468 -95.694034 3.000000
v 38.268343 -92.387953 3.000000
v 47.139674 -88.192126 3.000000
v 55.557023 -83.146961 3.000000
v 63.439328 -77.301045 3.000000
v 70.710678 -70.710678 3.000000
v 77.301045 -63.439328 3.000000
v 83.146961 -55.557023 3.000000
v 88.192126 -47.139674 3.000000
v 92.387953 -38.268343 3.000000
v 95.694034 -29.028468 3.000000
v 98.078528 -19.509032 3.000000
v 99.518473 -9.801714 3.000000
v 100.000000 0.000000 3.000000
v 99.518473 9.801714 3.000000
v 98.078528 19.509032 3.000000
v 95.694034 29.028468 3.000000
v 92.387953 38.268343 3.000000
v 88.192126 47.139674 3.000000
v 83.146961 55.557023 3.000000
v 77.301045 63.439328 3.000000
v 70.710678 70.710678 3.000000
v 63.439328 77.301045 3.000000
v 55.557023 83.146961 3.000000
v 47.139674 88.192126 3.000000
v 38.268343 92.387953 3.000000
v 29.028468 95.694034 3.000000
v 19.509032 98.078528 3.000000
v 9.801714 99.518473 3.000000
v 0.000000 100.000000 3.000000
v -9.801714 99.518473 3.000000
v -19.509032 98.078528 3.000000
v -29.028468 95.694034 3.000000
v -38.268343 92.387953 3.000000
v -47.139674 88.192126 3.000000
v -55.557023 83.146961 3.000000
v -63.439328 77.301045 3.000000
v -70.710678 70.710678 3.000000
v -77.301045 63.439328 3.000000
v -83.146961 55.557023 3.000000
v -88.192126 47.139674 3.000000
v -92.387953 38.268343 3.000000
v -95.694034 29.028468 3.000000
v -98.078528 19.509032 3.000000
v -99.518473 9.801714 3.000000
v -100.000000 -0.000000 115.000000
v -99.518473 -9.801714 115.000000
v -98.078528 -19.509032 115.000000
v -95.694034 -29.028468 115.000000
v -92.387953 -38.268343 115.000000
v -88.192126 -47.139674 115.000000
v -83.146961 -55.557023 115.000000
v -77.301045 -63.439328 115.000000
v -70.710678 -70.710678 115.000000
v -63.439328 -77.301045 115.000000
v -55.557023 -83.146961 115.000000
v -47.139674 -88.192126 115.000000
v -38.268343 -92.387953 115.000000
v -29.028468 -95.694034 115.000000
v -19.509032 -98.078528 115.000000
v -9.801714 -99.518473 115.000000
v 0.000000 -100.000000 115.000000
v 9.801714 -99.518473 115.000000
v 19.509032 -98.078528 115.000000
v 29.028468 -95.694034 115.000000
v 38.268343 -92.387953 115.000000
v 47.139674 -88.192126 115.000000
v 55.557023 -83.146961 115.000000
v 63.439328 -77.301045 115.000000
v 70.710678 -70.710678 115.000000
v 77.301045 -63.439328 115.000000
v 83.146961 -55.557023 115.000000
v 88.192126 -47.139674 115.000000
v 92.387953 -38.268343 115.000000
v 95.694034 -29.028468 115.000000
v 98.078528 -19.509032 115.000000
v 99.518473 -9.801714 115.000000
v 100.000000 0.000000 115.000000
v 99.518473 9.801714 115.000000
v 98.078528 19.509032 115.000000
v 95.694034 29.028468 115.000000
v 92.387953 38.268343 115.000000
v 88.192126 47.139674 115.000000
v 83.146961 55.557023 115.000000
v 77.301045 63.439328 115.000000
v 70.710678 70.710678 115.000000
v 63.439328 77.301045 115.000000
v 55.557023 83.146961 115.000000
v 47.139674 88.192126 115.000000
v 38.268343 92.387953 115.000000
v 29.028468 95.694034 115.000000
v 19.509032 98.078528 115.000000
v 9.801714 99.518473 115.000000
v 0.000000 100.000000 115.000000
v -9.801714 99.518473 115.000000
v -19.509032 98.078528 115.000000
v -29.028468 95.694034 115.000000
v -38.268343 92.387953 115.000000
v -47.139674 88.192126 115.000000
v -55.557023 83.146961 115.000000
v -63.439328 77.301045 115.000000
v -70.710678 70.710678 115.000000
v -77.301045 63.439328 115.000000
v -83.146961 55.557023 115.000000
v -88.192126 47.139674 115.000000
v -92.387953 38.268343 115.000000
v -95.694034 29.028468 115.000000
v -98.078528 19.509032 115.000000
v -99.518473 9.801714 115.000000
v -102.500000 -0.000000 115.000000
v -102.006434 10.046757 115.000000
v -100.530491 19.996758 115.000000
v -98.086384 29.754179 115.000000
v -94.697652 39.225052 115.000000
v -90.396930 48.318166 115.000000
v -85.225635 56.945949 115.000000
v -79.233571 65.025312 115.000000
v -72.478445 72.478445 115.000000
v -65.025312 79.233571 115.000000
v -56.945949 85.225635 115.000000
v -48.318166 90.396930 115.000000
v -39.225052 94.697652 115.000000
v -29.754179 98.086384 115.000000
v -19.996758 100.530491 115.000000
v -10.046757 102.006434 115.000000
v 0.000000 102.500000 115.000000
v 10.046757 102.006434 115.000000
v 19.996758 100.530491 115.000000
v 29.754179 98.086384 115.000000
v 39.225052 94.697652 115.000000
v 48.318166 90.396930 115.000000
v 56.945949 85.225635 115.000000
v 65.025312 79.233571 115.000000
v 72.478445 72.478445 115.000000
v 79.233571 65.025312 115.000000
v 85.225635 56.945949 115.000000
v 90.396930 48.318166 115.000000
v 94.697652 39.225052 115.000000
v 98.086384 29.754179 115.000000
v 100.530491 19.996758 115.000000
v 102.006434 10.046757 115.000000
v 102.500000 0.000000 115.000000
v 102.006434 -10.046757 115.000000
v 100.530491 -19.996758 115.000000
v 98.086384 -29.754179 115.000000
v 94.697652 -39.225052 115.000000
v 90.396930 -48.318166 115.000000
v 85.225635 -56.945949 115.000000
v 79.233571 -65.025312 115.000000
v 72.478445 -72.478445 115.000000
v 65.025312 -79.233571 115.000000
v 56.945949 -85.225635 115.000000
v 48.318166 -90.396930 115.000000
v 39.225052 -94.697652 115.000000
v 29.754179 -98.086384 115.000000
v 19.996758 -100.530491 115.000000
v 10.046757 -102.006434 115.000000
v 0.000000 -102.500000 115.000000
v -10.046757 -102.006434 115.000000
v -19.996758 -100.530491 115.000000
v -29.754179 -98.086384 115.000000
v -39.225052 -94.697652 115.000000
v -48.318166 -90.396930 115.000000
v -56.945949 -85.225635 115.000000
v -65.025312 -79.233571 115.000000
v -72.478445 -72.478445 115.000000
v -79.233571 -65.025312 115.000000
v -85.225635 -56.945949 115.000000
v -90.396930 -48.318166 115.000000
v -94.697652 -39.225052 115.000000
v -98.086384 -29.754179 115.000000
v -100.530491 -19.996758 115.000000
v -102.006434 -10.046757 115.000000
v -102.500000 -0.000000 0.000000
v -102.006434 -10.046757 0.000000
v -100.530491 -19.996758 0.000000
v -98.086384 -29.754179 0.000000
v -94.697652 -39.225052 0.000000
v -90.396930 -48.318166 0.000000
v -85.225635 -56.945949 0.000000
v -79.233571 -65.025312 0.000000
v -72.478445 -72.478445 0.000000
v -65.025312 -79.233571 0.000000
v -56.945949 -85.225635 0.000000
v -48.318166 -90.396930 0.000000
v -39.225052 -94.697652 0.000000
v -29.754179 -98.086384 0.000000
v -19.996758 -100.530491 0.000000
v -10.046757 -102.006434 0.000000
v 0.000000 -102.500000 0.000000
v 10.046757 -102.006434 0.000000
v 19.996758 -100.530491 0.000000
v 29.754179 -98.086384 0.000000
v 39.225052 -94.697652 0.000000
v 48.318166 -90.396930 0.000000
v 56.945949 -85.225635 0.000000
v 65.025312 -79.233571 0.000000
v 72.478445 -72.478445 0.000000
v 79.233571 -65.025312 0.000000
v 85.225635 -56.945949 0.000000
v 90.396930 -48.318166 0.000000
v 94.697652 -39.225052 0.000000
v 98.086384 -29.754179 0.000000
v 100.530491 -19.996758 0.000000
v 102.006434 -10.046757 0.000000
v 102.500000 0.000000 0.000000
v 102.006434 10.046757 0.000000
v 100.530491 19.996758 0.000000
v 98.086384 29.754179 0.000000
v 94.697652 39.225052 0.000000
v 90.396930 48.318166 0.000000
v 85.225635 56.945949 0.000000
v 79.233571 65.025312 0.000000
v 72.478445 72.478445 0.000000
v 65.025312 79.233571 0.000000
v 56.945949 85.225635 0.000000
v 48.318166 90.396930 0.000000
v 39.225052 94.697652 0.000000
v 29.754179 98.086384 0.000000
v 19.996758 100.530491 0.000000
v 10.046757 102.006434 0.000000
v 0.000000 102.500000 0.000000
v -10.046757 102.006434 0.000000
v -19.996758 100.530491 0.000000
v -29.754179 98.086384 0.000000
v -39.225052 94.697652 0.000000
v -48.318166 90.396930 0.000000
v -56.945949 85.225635 0.000000
v -65.025312 79.233571 0.000000
v -72.478445 72.478445 0.000000
v -79.233571 65.025312 0.000000
v -85.225635 56.945949 0.000000
v -90.396930 48.318166 0.000000
v -94.697652 39.225052 0.000000
v -98.086384 29.754179 0.000000
v -100.530491 19.996758 0.000000
v -102.006434 10.046757 0.000000
vt -99.518473 -9.801714 0.000000
vt 99.518473 -9.801714 0.000000
vt -100.000000 -0.000000 0.000000
vt 100.000000 0.000000 0.000000
vt -99.518473 9.801714 0.000000
vt 99.518473 9.801714 0.000000
vt -98.078528 19.509032 0.000000
vt 98.078528 19.509032 0.000000
vt -95.694034 29.028468 0.000000
vt 95.694034 29.028468 0.000000
vt -92.387953 38.268343 0.000000
vt 92.387953 38.268343 0.000000
vt -88.192126 47.139674 0.000000
vt 88.192126 47.139674 0.000000
vt -83.146961 55.557023 0.000000
vt 83.146961 55.557023 0.000000
vt -77.301045 63.439328 0.000000
vt 77.301045 63.439328 0.000000
vt -70.710678 70.710678 0.000000
vt 70.710678 70.710678 0.000000
vt -63.439328 77.301045 0.000000
vt 63.439328 77.301045 0.000000
vt -55.557023 83.146961 0.000000
vt 55.557023 83.146961 0.000000
vt -47.139674 88.192126 0.000000
vt 47.139674 88.192126 0.000000
vt -38.268343 92.387953 0.000000
vt 38.268343 92.387953 0.000000
vt -29.028468 95.694034 0.000000
vt 29.028468 95.694034 0.000000
vt -19.509032 98.078528 0.000000
vt 19.509032 98.078528 0.000000
vt -9.801714 99.518473 0.000000
vt 9.801714 99.518473 0.000000
vt 0.000000 100.000000 0.000000
vt 98.078528 -19.509032 0.000000
vt -98.078528 -19.509032 0.000000
vt 95.694034 -29.028468 0.000000
vt -95.694034 -29.028468 0.000000
vt 92.387953 -38.268343 0.000000
vt -92.387953 -38.268343 0.000000
vt 88.192126 -47.139674 0.000000
vt -88.192126 -47.139674 0.000000
vt 83.146961 -55.557023 0.000000
vt -83.146961 -55.557023 0.000000
vt 77.301045 -63.439328 0.000000
vt -77.301045 -63.439328 0.000000
vt 70.710678 -70.710678 0.000000
vt -70.710678 -70.710678 0.000000
vt 63.439328 -77.301045 0.000000
vt -63.439328 -77.301045 0.000000
vt 55.557023 -83.146961 0.000000
vt -55.557023 -83.146961 0.000000
vt 47.139674 -88.192126 0.000000
vt -47.139674 -88.192126 0.000000
vt 38.268343 -92.387953 0.000000
vt -38.268343 -92.387953 0.000000
vt 29.028468 -95.694034 0.000000
vt -29.028468 -95.694034 0.000000
vt 19.509032 -98.078528 0.000000
vt -19.509032 -98.078528 0.000000
vt 9.801714 -99.518473 0.000000
vt -9.801714 -99.518473 0.000000
vt 0.000000 -100.000000 0.000000
vt 3.000000 304.341788 0.000000
vt 115.000000 304.341788 0.000000
vt 3.000000 314.159265 0.000000
vt 115.000000 314.159265 0.000000
vt 3.000000 -314.159265 0.000000
vt 115.000000 -314.159265 0.000000
vt 3.000000 -304.341788 0.000000
vt 115.000000 -304.341788 0.000000
vt 115.000000 -294.524311 0.000000
vt 3.000000 294.524311 0.000000
vt 115.000000 294.524311 0.000000
vt 3.000000 284.706834 0.000000
vt 115.000000 284.706834 0.000000
vt 3.000000 274.889357 0.000000
vt 115.000000 274.889357 0.000000
vt 3.000000 265.071880 0.000000
vt 115.000000 265.071880 0.000000
vt 3.000000 255.254403 0.000000
vt 115.000000 255.254403 0.000000
vt 3.000000 245.436926 0.000000
vt 115.000000 245.436926 0.000000
vt 3.000000 235.619449 0.000000
vt 115.000000 235.619449 0.000000
vt 3.000000 225.801972 0.000000
vt 115.000000 225.801972 0.000000
vt 3.000000 215.984495 0.000000
vt 115.000000 215.984495 0.000000
vt 3.000000 206.167018 0.000000
vt 115.000000 206.167018 0.000000
vt 3.000000 196.349541 0.000000
vt 115.000000 196.349541 0.000000
vt 3.000000 186.532064 0.000000
vt 115.000000 186.532064 0.000000
vt 3.000000 176.714587 0.000000
vt 115.000000 176.714587 0.000000
vt 3.000000 166.897110 0.000000
vt 115.000000 166.897110 0.000000
vt 3.000000 157.079633 0.000000
vt 115.000000 157.079633 0.000000
vt 3.000000 147.262156 0.000000
vt 115.000000 147.262156 0.000000
vt 3.000000 137.444679 0.000000
vt 115.000000 137.444679 0.000000
vt 3.000000 127.627201 0.000000
vt 115.000000 127.627201 0.000000
vt 3.000000 117.809724 0.000000
vt 115.000000 117.809724 0.000000
vt 3.000000 107.992247 0.000000
vt 115.000000 107.992247 0.000000
vt 3.000000 98.174770 0.000000
vt 115.000000 98.174770 0.000000
vt 3.000000 88.357293 0.000000
vt 115.000000 88.357293 0.000000
vt 3.000000 78.539816 0.000000
vt 115.000000 78.539816 0.000000
vt 3.000000 68.722339 0.000000
vt 115.000000 68.722339 0.000000
vt 3.000000 58.904862 0.000000
vt 115.000000 58.904862 0.000000
vt 3.000000 49.087385 0.000000
vt 115.000000 49.087385 0.000000
vt 3.000000 39.269908 0.000000
vt 115.000000 39.269908 0.000000
vt 3.000000 29.452431 0.000000
vt 115.000000 29.452431 0.000000
vt 3.000000 19.634954 0.000000
vt 115.000000 19.634954 0.000000
vt 3.000000 9.817477 0.000000
vt 115.000000 9.817477 0.000000
vt 3.000000 0.000000 0.000000
vt 115.000000 0.000000 0.000000
vt 3.000000 -9.817477 0.000000
vt 115.000000 -9.817477 0.000000
vt 3.000000 -19.634954 0.000000
vt 115.000000 -19.634954 0.000000
vt 3.000000 -29.452431 0.000000
vt 115.000000 -29.452431 0.000000
vt 3.000000 -39.269908 0.000000
vt 115.000000 -39.269908 0.000000
vt 3.000000 -49.087385 0.000000
vt 115.000000 -49.087385 0.000000
vt 3.000000 -58.904862 0.000000
vt 115.000000 -58.904862 0.000000
vt 3.000000 -68.722339 0.000000
vt 115.000000 -68.722339 0.000000
vt 3.000000 -78.539816 0.000000
vt 115.000000 -78.539816 0.000000
vt 3.000000 -88.357293 0.000000
vt 115.000000 -88.357293 0.000000
vt 3.000000 -98.174770 0.000000
vt 115.000000 -98.174770 0.000000
vt 3.000000 -107.992247 0.000000
vt 115.000000 -107.992247 0.000000
vt 3.000000 -117.809724 0.000000
vt 115.000000 -117.809724 0.000000
vt 3.000000 -127.627201 0.000000
vt 115.000000 -127.627201 0.000000
vt 3.000000 -137.444679 0.000000
vt 115.000000 -137.444679 0.000000
vt 3.000000 -147.262156 0.000000
vt 115.000000 -147.262156 0.000000
vt 3.000000 -157.079633 0.000000
vt 115.000000 -157.079633 0.000000
vt 3.000000 -166.897110 0.000000
vt 115.000000 -166.897110 0.000000
vt 3.000000 -176.714587 0.000000
vt 115.000000 -176.714587 0.000000
vt 3.000000 -186.532064 0.000000
vt 115.000000 -186.532064 0.000000
vt 3.000000 -196.349541 0.000000
vt 115.000000 -196.349541 0.000000
vt 3.000000 -206.167018 0.000000
vt 115.000000 -206.167018 0.000000
vt 3.000000 -215.984495 0.000000
vt 115.000000 -215.984495 0.000000
vt 3.000000 -225.801972 0.000000
vt 115.000000 -225.801972 0.000000
vt 3.000000 -235.619449 0.000000
vt 115.000000 -235.619449 0.000000
vt 3.000000 -245.436926 0.000000
vt 115.000000 -245.436926 0.000000
vt 3.000000 -255.254403 0.000000
vt 115.000000 -255.254403 0.000000
vt 3.000000 -265.071880 0.000000
vt 115.000000 -265.071880 0.000000
vt 3.000000 -274.889357 0.000000
vt 115.000000 -274.889357 0.000000
vt 3.000000 -284.706834 0.000000
vt 115.000000 -284.706834 0.000000
vt 3.000000 -294.524311 0.000000
vt -115.000000 311.950333 0.000000
vt -0.000000 311.950333 0.000000
vt -115.000000 322.013247 0.000000
vt -0.000000 322.013247 0.000000
vt -115.000000 -322.013247 0.000000
vt -0.000000 -322.013247 0.000000
vt -115.000000 -311.950333 0.000000
vt -0.000000 -311.950333 0.000000
vt -115.000000 -301.887419 0.000000
vt -0.000000 -301.887419 0.000000
vt -115.000000 -291.824505 0.000000
vt -0.000000 -291.824505 0.000000
vt -115.000000 -281.761591 0.000000
vt -0.000000 -281.761591 0.000000
vt -115.000000 -271.698677 0.000000
vt -0.000000 -271.698677 0.000000
vt -115.000000 -261.635763 0.000000
vt -0.000000 -261.635763 0.000000
vt -115.000000 -251.572849 0.000000
vt -0.000000 -251.572849 0.000000
vt -115.000000 -241.509935 0.000000
vt -0.000000 -241.509935 0.000000
vt -115.000000 -231.447021 0.000000
vt -0.000000 -231.447021 0.000000
vt -115.000000 -221.384107 0.000000
vt -0.000000 -221.384107 0.000000
vt -115.000000 -211.321193 0.000000
vt -0.000000 -211.321193 0.000000
vt -115.000000 -201.258279 0.000000
vt -0.000000 -201.258279 0.000000
vt -115.000000 -191.195365 0.000000
vt -0.000000 -191.195365 0.000000
vt -115.000000 -181.132451 0.000000
vt -0.000000 -181.132451 0.000000
vt -115.000000 -171.069537 0.000000
vt -0.000000 -171.069537 0.000000
vt -115.000000 -161.006623 0.000000
vt -0.000000 -161.006623 0.000000
vt -115.000000 -150.943709 0.000000
vt -0.000000 -150.943709 0.000000
vt -115.000000 -140.880796 0.000000
vt -0.000000 -140.880796 0.000000
vt -115.000000 -130.817882 0.000000
vt -0.000000 -130.817882 0.000000
vt -115.000000 -120.754968 0.000000
vt -0.000000 -120.754968 0.000000
vt -115.000000 -110.692054 0.000000
vt -0.000000 -110.692054 0.000000
vt -115.000000 -100.629140 0.000000
vt -0.000000 -100.629140 0.000000
vt -115.000000 -90.566226 0.000000
vt -0.000000 -90.566226 0.000000
vt -115.000000 -80.503312 0.000000
vt -0.000000 -80.503312 0.000000
vt -115.000000 -70.440398 0.000000
vt -0.000000 -70.440398 0.000000
vt -115.000000 -60.377484 0.000000
vt -0.000000 -60.377484 0.000000
vt -115.000000 -50.314570 0.000000
vt -0.000000 -50.314570 0.000000
vt -115.000000 -40.251656 0.000000
vt -0.000000 -40.251656 0.000000
vt -115.000000 -30.188742 0.000000
vt -0.000000 -30.188742 0.000000
vt -115.000000 -20.125828 0.000000
vt -0.000000 -20.125828 0.000000
vt -115.000000 -10.062914 0.000000
vt -0.000000 -10.062914 0.000000
vt -115.000000 0.000000 0.000000
vt -0.000000 0.000000 0.000000
vt -115.000000 10.062914 0.000000
vt -0.000000 10.062914 0.000000
vt -115.000000 20.125828 0.000000
vt -0.000000 20.125828 0.000000
vt -115.000000 30.188742 0.000000
vt -0.000000 30.188742 0.000000
vt -115.000000 40.251656 0.000000
vt -0.000000 40.251656 0.000000
vt -115.000000 50.314570 0.000000
vt -0.000000 50.314570 0.000000
vt -115.000000 60.377484 0.000000
vt -0.000000 60.377484 0.000000
vt -115.000000 70.440398 0.000000
vt -0.000000 70.440398 0.000000
vt -115.000000 80.503312 0.000000
vt -0.000000 80.503312 0.000000
vt -115.000000 90.566226 0.000000
vt -0.000000 90.566226 0.000000
vt -115.000000 100.629140 0.000000
vt -0.000000 100.629140 0.000000
vt -115.000000 110.692054 0.000000
vt -0.000000 110.692054 0.000000
vt -115.000000 120.754968 0.000000
vt -0.000000 120.754968 0.000000
vt -115.000000 130.817882 0.000000
vt -0.000000 130.817882 0.000000
vt -115.000000 140.880796 0.000000
vt -0.000000 140.880796 0.000000
vt -115.000000 150.943709 0.000000
vt -0.000000 150.943709 0.000000
vt -115.000000 161.006623 0.000000
vt -0.000000 161.006623 0.000000
vt -115.000000 171.069537 0.000000
vt -0.000000 171.069537 0.000000
vt -115.000000 181.132451 0.000000
vt -0.000000 181.132451 0.000000
vt -115.000000 191.195365 0.000000
vt -0.000000 191.195365 0.000000
vt -115.000000 201.258279 0.000000
vt -0.000000 201.258279 0.000000
vt -115.000000 211.321193 0.000000
vt -0.000000 211.321193 0.000000
vt -115.000000 221.384107 0.000000
vt -0.000000 221.384107 0.000000
vt -115.000000 231.447021 0.000000
vt -0.000000 231.447021 0.000000
vt -115.000000 241.509935 0.000000
vt -0.000000 241.509935 0.000000
vt -115.000000 251.572849 0.000000
vt -0.000000 251.572849 0.000000
vt -115.000000 261.635763 0.000000
vt -0.000000 261.635763 0.000000
vt -115.000000 271.698677 0.000000
vt -0.000000 271.698677 0.000000
vt -115.000000 281.761591 0.000000
vt -0.000000 281.761591 0.000000
vt -115.000000 291.824505 0.000000
vt -0.000000 291.824505 0.000000
vt -115.000000 301.887419 0.000000
vt -0.000000 301.887419 0.000000
vt -99.518473 -9.801714 0.000000
vt -100.000000 -0.000000 0.000000
vt -102.500000 -0.000000 0.000000
vt -99.518473 9.801714 0.000000
vt -102.006434 10.046757 0.000000
vt -98.078528 19.509032 0.000000
vt -100.530491 19.996758 0.000000
vt -95.694034 29.028468 0.000000
vt -98.086384 29.754179 0.000000
vt -92.387953 38.268343 0.000000
vt -94.697652 39.225052 0.000000
vt -88.192126 47.139674 0.000000
vt -90.396930 48.318166 0.000000
vt -83.146961 55.557023 0.000000
vt -85.225635 56.945949 0.000000
vt -77.301045 63.439328 0.000000
vt -79.233571 65.025312 0.000000
vt -70.710678 70.710678 0.000000
vt -72.478445 72.478445 0.000000
vt -63.439328 77.301045 0.000000
vt -65.025312 79.233571 0.000000
vt -55.557023 83.146961 0.000000
vt -56.945949 85.225635 0.000000
vt -47.139674 88.192126 0.000000
vt -48.318166 90.396930 0.000000
vt -38.268343 92.387953 0.000000
vt -39.225052 94.697652 0.000000
vt -29.028468 95.694034 0.000000
vt -29.754179 98.086384 0.000000
vt -19.509032 98.078528 0.000000
vt -19.996758 100.530491 0.000000
vt -9.801714 99.518473 0.000000
vt -10.046757 102.006434 0.000000
vt 0.000000 100.000000 0.000000
vt 0.000000 102.500000 0.000000
vt 10.046757 102.006434 0.000000
vt 9.801714 99.518473 0.000000
vt 19.996758 100.530491 0.000000
vt 19.509032 98.078528 0.000000
vt 29.754179 98.086384 0.000000
vt 29.028468 95.694034 0.000000
vt 39.225052 94.697652 0.000000
vt 38.268343 92.387953 0.000000
vt 48.318166 90.396930 0.000000
vt 47.139674 88.192126 0.000000
vt 56.945949 85.225635 0.000000
vt 55.557023 83.146961 0.000000
vt 65.025312 79.233571 0.000000
vt 63.439328 77.301045 0.000000
vt 72.478445 72.478445 0.000000
vt 70.710678 70.710678 0.000000
vt 79.233571 65.025312 0.000000
vt 77.301045 63.439328 0.000000
vt 85.225635 56.945949 0.000000
vt 83.146961 55.557023 0.000000
vt 90.396930 48.318166 0.000000
vt 88.192126 47.139674 0.000000
vt 94.697652 39.225052 0.000000
vt 92.387953 38.268343 0.000000
vt 98.086384 29.754179 0.000000
vt 95.694034 29.028468 0.000000
vt 100.530491 19.996758 0.000000
vt 98.078528 19.509032 0.000000
vt 102.006434 10.046757 0.000000
vt 99.518473 9.801714 0.000000
vt 102.500000 0.000000 0.000000
vt 100.000000 0.000000 0.000000
vt 102.006434 -10.046757 0.000000
vt 99.518473 -9.801714 0.000000
vt 98.078528 -19.509032 0.000000
vt 100.530491 -19.996758 0.000000
vt 95.694034 -29.028468 0.000000
vt 98.086384 -29.754179 0.000000
vt 92.387953 -38.268343 0.000000
vt 94.697652 -39.225052 0.000000
vt 88.192126 -47.139674 0.000000
vt 90.396930 -48.318166 0.000000
vt 83.146961 -55.557023 0.000000
vt 85.225635 -56.945949 0.000000
vt 77.301045 -63.439328 0.000000
vt 79.233571 -65.025312 0.000000
vt 70.710678 -70.710678 0.000000
vt 72.478445 -72.478445 0.000000
vt 63.439328 -77.301045 0.000000
vt 65.025312 -79.233571 0.000000
vt 55.557023 -83.146961 0.000000
vt 56.945949 -85.225635 0.000000
vt 47.139674 -88.192126 0.000000
vt 48.318166 -90.396930 0.000000
vt 38.268343 -92.387953 0.000000
vt 39.225052 -94.697652 0.000000
vt 29.028468 -95.694034 0.000000
vt 29.754179 -98.086384 0.000000
vt 19.509032 -98.078528 0.000000
vt 19.996758 -100.530491 0.000000
vt 9.801714 -99.518473 0.000000
vt 10.046757 -102.006434 0.000000
vt 0.000000 -100.000000 0.000000
vt 0.000000 -102.500000 0.000000
vt -10.046757 -102.006434 0.000000
vt -9.801714 -99.518473 0.000000
vt -19.996758 -100.530491 0.000000
vt -19.509032 -98.078528 0.000000
vt -29.754179 -98.086384 0.000000
vt -29.028468 -95.694034 0.000000
vt -39.225052 -94.697652 0.000000
vt -38.268343 -92.387953 0.000000
vt -48.318166 -90.396930 0.000000
vt -47.139674 -88.192126 0.000000
vt -56.945949 -85.225635 0.000000
vt -55.557023 -83.146961 0.000000
vt -65.025312 -79.233571 0.000000
vt -63.439328 -77.301045 0.000000
vt -72.478445 -72.478445 0.000000
vt -70.710678 -70.710678 0.000000
vt -79.233571 -65.025312 0.000000
vt -77.301045 -63.439328 0.000000
vt -85.225635 -56.945949 0.000000
vt -83.146961 -55.557023 0.000000
vt -90.396930 -48.318166 0.000000
vt -88.192126 -47.139674 0.000000
vt -94.697652 -39.225052 0.000000
vt -92.387953 -38.268343 0.000000
vt -98.086384 -29.754179 0.000000
vt -95.694034 -29.028468 0.000000
vt -100.530491 -19.996758 0.000000
vt -98.078528 -19.509032 0.000000
vt -102.006434 -10.046757 0.000000
vt 102.006434 10.046757 0.000000
vt -102.006434 10.046757 0.000000
vt 102.500000 -0.000000 0.000000
vt -102.500000 0.000000 0.000000
vt 102.006434 -10.046757 0.000000
vt -102.006434 -10.046757 0.000000
vt 100.530491 -19.996758 0.000000
vt -100.530491 -19.996758 0.000000
vt 98.086384 -29.754179 0.000000
vt -98.086384 -29.754179 0.000000
vt 94.697652 -39.225052 0.000000
vt -94.697652 -39.225052 0.000000
vt 90.396930 -48.318166 0.000000
vt -90.396930 -48.318166 0.000000
vt 85.225635 -56.945949 0.000000
vt -85.225635 -56.945949 0.000000
vt 79.233571 -65.025312 0.000000
vt -79.233571 -65.025312 0.000000
vt 72.478445 -72.478445 0.000000
vt -72.478445 -72.478445 0.000000
vt 65.025312 -79.233571 0.000000
vt -65.025312 -79.233571 0.000000
vt 56.945949 -85.225635 0.000000
vt -56.945949 -85.225635 0.000000
vt 48.318166 -90.396930 0.000000
vt -48.318166 -90.396930 0.000000
vt 39.225052 -94.697652 0.000000
vt -39.225052 -94.697652 0.000000
vt 29.754179 -98.086384 0.000000
vt -29.754179 -98.086384 0.000000
vt 19.996758 -100.530491 0.000000
vt -19.996758 -100.530491 0.000000
vt 10.046757 -102.006434 0.000000
vt -10.046757 -102.006434 0.000000
vt -0.000000 -102.500000 0.000000
vt -100.530491 19.996758 0.000000
vt 100.530491 19.996758 0.000000
vt -98.086384 29.754179 0.000000
vt 98.086384 29.754179 0.000000
vt -94.697652 39.225052 0.000000
vt 94.697652 39.225052 0.000000
vt -90.396930 48.318166 0.000000
vt 90.396930 48.318166 0.000000
vt -85.225635 56.945949 0.000000
vt 85.225635 56.945949 0.000000
vt -79.233571 65.025312 0.000000
vt 79.233571 65.025312 0.000000
vt -72.478445 72.478445 0.000000
vt 72.478445 72.478445 0.000000
vt -65.025312 79.233571 0.000000
vt 65.025312 79.233571 0.000000
vt -56.945949 85.225635 0.000000
vt 56.945949 85.225635 0.000000
vt -48.318166 90.396930 0.000000
vt 48.318166 90.396930 0.000000
vt -39.225052 94.697652 0.000000
vt 39.225052 94.697652 0.000000
vt -29.754179 98.086384 0.000000
vt 29.754179 98.086384 0.000000
vt -19.996758 100.530491 0.000000
vt 19.996758 100.530491 0.000000
vt -10.046757 102.006434 0.000000
vt 10.046757 102.006434 0.000000
vt -0.000000 102.500000 0.000000
vn 0.000000 0.000000 1.000000
vn 0.000000 0.000000 1.000000
vn 0.000000 0.000000 1.000000
vn 0.000000 0.000000 1.000000
vn 0.000000 0.000000 1.000000
vn 0.000000 0.000000 1.000000
vn 0.000000 0.000000 1.000000
vn 0.000000 0.000000 1.000000
vn 0.000000 0.000000 1.000000
vn 0.000000 0.000000 1.000000
vn 0.000000 0.000000 1.000000
vn 0.000000 0.000000 1.000000
vn 0.000000 0.000000 1.000000
vn 0.000000 0.000000 1.000000
vn 0.000000 0.000000 1.000000
vn 0.000000 0.000000 1.000000
vn 0.000000 0.000000 1.000000
vn 0.000000 0.000000 1.000000
vn 0.000000 0.000000 1.000000
vn 0.000000 0.000000 1.000000
vn 0.000000 0.000000 1.000000
vn 0.000000 0.000000 1.000000
vn 0.000000 0.000000 1.000000
vn 0.000000 0.000000 1.000000
vn 0.000000 0.000000 1.000000
vn 0.000000 0.000000 1.000000
vn 0.000000 0.000000 1.000000
vn 0.000000 0.000000 1.000000
vn 0.000000 0.000000 1.000000
vn 0.000000 0.000000 1.000000
vn 0.000000 0.000000 1.000000
vn 0.000000 0.000000 1.000000
vn 0.000000 0.000000 1.000000
vn 0.000000 0.000000 1.000000
vn 0.000000 0.000000 1.000000
vn 0.000000 0.000000 1.000000
vn 0.000000 0.000000 1.000000
vn 0.000000 0.000000 1.000000
vn 0.000000 0.000000 1.000000
vn 0.000000 0.000000 1.000000
vn 0.000000 0.000000 1.000000
vn 0.000000 0.000000 1.000000
vn 0.000000 0.000000 1.000000
vn 0.000000 0.000000 1.000000
vn 0.000000 0.000000 1.000000
vn 0.000000 0.000000 1.000000
vn 0.000000 0.000000 1.000000
vn 0.000000 0.000000 1.000000
vn 0.000000 0.000000 1.000000
vn 0.000000 0.000000 1.000000
vn 0.000000 0.000000 1.000000
vn 0.000000 0.000000 1.000000
vn 0.000000 0.000000 1.000000
vn 0.000000 0.000000 1.000000
vn 0.000000 0.000000 1.000000
vn 0.000000 0.000000 1.000000
vn 0.000000 0.000000 1.000000
vn 0.000000 0.000000 1.000000
vn 0.000000 0.000000 1.000000
vn 0.000000 0.000000 1.000000
vn 0.000000 0.000000 1.000000
vn 0.000000 0.000000 1.000000
vn 0.000000 0.000000 1.000000
vn 0.000000 0.000000 1.000000
vn 0.995185 -0.098017 0.000000
vn 0.995185 -0.098017 0.000000
vn 1.000000 -0.000000 0.000000
vn 1.000000 -0.000000 0.000000
vn 0.995185 0.098017 -0.000000
vn 0.995185 0.098017 -0.000000
vn 0.980785 0.195090 -0.000000
vn 0.980785 -0.195090 0.000000
vn 0.980785 -0.195090 0.000000
vn 0.956940 -0.290285 0.000000
vn 0.956940 -0.290285 0.000000
vn 0.923880 -0.382683 0.000000
vn 0.923880 -0.382683 0.000000
vn 0.881921 -0.471397 0.000000
vn 0.881921 -0.471397 0.000000
vn 0.831470 -0.555570 0.000000
vn 0.831470 -0.555570 0.000000
vn 0.773010 -0.634393 0.000000
vn 0.773010 -0.634393 0.000000
vn 0.707107 -0.707107 0.000000
vn 0.707107 -0.707107 0.000000
vn 0.634393 -0.773010 0.000000
vn 0.634393 -0.773010 0.000000
vn 0.555570 -0.831470 0.000000
vn 0.555570 -0.831470 0.000000
vn 0.471397 -0.881921 0.000000
vn 0.471397 -0.881921 0.000000
vn 0.382683 -0.923880 0.000000
vn 0.382683 -0.923880 0.000000
vn 0.290285 -0.956940 0.000000
vn 0.290285 -0.956940 0.000000
vn 0.195090 -0.980785 0.000000
vn 0.195090 -0.980785 0.000000
vn 0.098017 -0.995185 0.000000
vn 0.098017 -0.995185 0.000000
vn -0.000000 -1.000000 0.000000
vn -0.000000 -1.000000 0.000000
vn -0.098017 -0.995185 0.000000
vn -0.098017 -0.995185 0.000000
vn -0.195090 -0.980785 0.000000
vn -0.195090 -0.980785 0.000000
vn -0.290285 -0.956940 0.000000
vn -0.290285 -0.956940 0.000000
vn -0.382683 -0.923880 0.000000
vn -0.382683 -0.923880 0.000000
vn -0.471397 -0.881921 0.000000
vn -0.471397 -0.881921 0.000000
vn -0.555570 -0.831470 0.000000
vn -0.555570 -0.831470 0.000000
vn -0.634393 -0.773010 0.000000
vn -0.634393 -0.773010 0.000000
vn -0.707107 -0.707107 0.000000
vn -0.707107 -0.707107 0.000000
vn -0.773010 -0.634393 0.000000
vn -0.773010 -0.634393 0.000000
vn -0.831470 -0.555570 0.000000
vn -0.831470 -0.555570 0.000000
vn -0.881921 -0.471397 0.000000
vn -0.881921 -0.471397 0.000000
vn -0.923880 -0.382683 0.000000
vn -0.923880 -0.382683 0.000000
vn -0.956940 -0.290285 0.000000
vn -0.956940 -0.290285 0.000000
vn -0.980785 -0.195090 0.000000
vn -0.980785 -0.195090 0.000000
vn -0.995185 -0.098017 0.000000
vn -0.995185 -0.098017 0.000000
vn -1.000000 0.000000 0.000000
vn -1.000000 0.000000 0.000000
vn -0.995185 0.098017 0.000000
vn -0.995185 0.098017 0.000000
vn -0.980785 0.195090 0.000000
vn -0.980785 0.195090 0.000000
vn -0.956940 0.290285 0.000000
vn -0.956940 0.290285 0.000000
vn -0.923880 0.382683 0.000000
vn -0.923880 0.382683 0.000000
vn -0.881921 0.471397 0.000000
vn -0.881921 0.471397 0.000000
vn -0.831470 0.555570 0.000000
vn -0.831470 0.555570 0.000000
vn -0.773010 0.634393 0.000000
vn -0.773010 0.634393 0.000000
vn -0.707107 0.707107 0.000000
vn -0.707107 0.707107 0.000000
vn -0.634393 0.773010 0.000000
vn -0.634393 0.773010 0.000000
vn -0.555570 0.831470 0.000000
vn -0.555570 0.831470 0.000000
vn -0.471397 0.881921 0.000000
vn -0.471397 0.881921 0.000000
vn -0.382683 0.923880 0.000000
vn -0.382683 0.923880 0.000000
vn -0.290285 0.956940 0.000000
vn -0.290285 0.956940 0.000000
vn -0.195090 0.980785 0.000000
vn -0.195090 0.980785 0.000000
vn -0.098017 0.995185 0.000000
vn -0.098017 0.995185 0.000000
vn -0.000000 1.000000 0.000000
vn -0.000000 1.000000 0.000000
vn 0.098017 0.995185 -0.000000
vn 0.098017 0.995185 -0.000000
vn 0.195090 0.980785 -0.000000
vn 0.195090 0.980785 -0.000000
vn 0.290285 0.956940 -0.000000
vn 0.290285 0.956940 -0.000000
vn 0.382683 0.923880 -0.000000
vn 0.382683 0.923880 -0.000000
vn 0.471397 0.881921 -0.000000
vn 0.471397 0.881921 -0.000000
vn 0.555570 0.831470 -0.000000
vn 0.555570 0.831470 -0.000000
vn 0.634393 0.773010 -0.000000
vn 0.634393 0.773010 -0.000000
vn 0.707107 0.707107 -0.000000
vn 0.707107 0.707107 -0.000000
vn 0.773010 0.634393 -0.000000
vn 0.773010 0.634393 -0.000000
vn 0.831470 0.555570 -0.000000
vn 0.831470 0.555570 -0.000000
vn 0.881921 0.471397 -0.000000
vn 0.881921 0.471397 -0.000000
vn 0.923880 0.382683 -0.000000
vn 0.923880 0.382683 -0.000000
vn 0.956940 0.290285 -0.000000
vn 0.956940 0.290285 -0.000000
vn 0.980785 0.195090 -0.000000
vn -0.995185 0.098017 -0.000000
vn -0.995185 0.098017 -0.000000
vn -1.000000 0.000000 -0.000000
vn -1.000000 0.000000 -0.000000
vn -0.995185 -0.098017 0.000000
vn -0.995185 -0.098017 0.000000
vn -0.980785 -0.195090 0.000000
vn -0.980785 -0.195090 0.000000
vn -0.956940 -0.290285 0.000000
vn -0.956940 -0.290285 0.000000
vn -0.923880 -0.382683 0.000000
vn -0.923880 -0.382683 0.000000
vn -0.881921 -0.471397 0.000000
vn -0.881921 -0.471397 0.000000
vn -0.831470 -0.555570 0.000000
vn -0.831470 -0.555570 0.000000
vn -0.773010 -0.634393 0.000000
vn -0.773010 -0.634393 0.000000
vn -0.707107 -0.707107 0.000000
vn -0.707107 -0.707107 0.000000
vn -0.634393 -0.773010 0.000000
vn -0.634393 -0.773010 0.000000
vn -0.555570 -0.831470 0.000000
vn -0.555570 -0.831470 0.000000
vn -0.471397 -0.881921 0.000000
vn -0.471397 -0.881921 0.000000
vn -0.382683 -0.923880 0.000000
vn -0.382683 -0.923880 0.000000
vn -0.290285 -0.956940 0.000000
vn -0.290285 -0.956940 0.000000
vn -0.195090 -0.980785 0.000000
vn -0.195090 -0.980785 0.000000
vn -0.098017 -0.995185 0.000000
vn -0.098017 -0.995185 0.000000
vn 0.000000 -1.000000 -0.000000
vn 0.000000 -1.000000 -0.000000
vn 0.098017 -0.995185 -0.000000
vn 0.098017 -0.995185 -0.000000
vn 0.195090 -0.980785 -0.000000
vn 0.195090 -0.980785 -0.000000
vn 0.290285 -0.956940 -0.000000
vn 0.290285 -0.956940 -0.000000
vn 0.382683 -0.923880 -0.000000
vn 0.382683 -0.923880 -0.000000
vn 0.471397 -0.881921 -0.000000
vn 0.471397 -0.881921 -0.000000
vn 0.555570 -0.831470 -0.000000
vn 0.555570 -0.831470 -0.000000
vn 0.634393 -0.773010 -0.000000
vn 0.634393 -0.773010 -0.000000
vn 0.707107 -0.707107 -0.000000
vn 0.707107 -0.707107 -0.000000
vn 0.773010 -0.634393 -0.000000
vn 0.773010 -0.634393 -0.000000
vn 0.831470 -0.555570 -0.000000
vn 0.831470 -0.555570 -0.000000
vn 0.881921 -0.471397 -0.000000
vn 0.881921 -0.471397 -0.000000
vn 0.923880 -0.382683 -0.000000
vn 0.923880 -0.382683 -0.000000
vn 0.956940 -0.290285 -0.000000
vn 0.956940 -0.290285 -0.000000
vn 0.980785 -0.195090 -0.000000
vn 0.980785 -0.195090 -0.000000
vn 0.995185 -0.098017 -0.000000
vn 0.995185 -0.098017 -0.000000
vn 1.000000 -0.000000 -0.000000
vn 1.000000 -0.000000 -0.000000
vn 0.995185 0.098017 -0.000000
vn 0.995185 0.098017 -0.000000
vn 0.980785 0.195090 -0.000000
vn 0.980785 0.195090 -0.000000
vn 0.956940 0.290285 -0.000000
vn 0.956940 0.290285 -0.000000
vn 0.923880 0.382683 -0.000000
vn 0.923880 0.382683 -0.000000
vn 0.881921 0.471397 -0.000000
vn 0.881921 0.471397 -0.000000
vn 0.831470 0.555570 -0.000000
vn 0.831470 0.555570 -0.000000
vn 0.773010 0.634393 -0.000000
vn 0.773010 0.634393 -0.000000
vn 0.707107 0.707107 -0.000000
vn 0.707107 0.707107 -0.000000
vn 0.634393 0.773010 -0.000000
vn 0.634393 0.773010 -0.000000
vn 0.555570 0.831470 -0.000000
vn 0.555570 0.831470 -0.000000
vn 0.471397 0.881921 -0.000000
vn 0.471397 0.881921 -0.000000
vn 0.382683 0.923880 -0.000000
vn 0.382683 0.923880 -0.000000
vn 0.290285 0.956940 -0.000000
vn 0.290285 0.956940 -0.000000
vn 0.195090 0.980785 -0.000000
vn 0.195090 0.980785 -0.000000
vn 0.098017 0.995185 -0.000000
vn 0.098017 0.995185 -0.000000
vn 0.000000 1.000000 -0.000000
vn 0.000000 1.000000 -0.000000
vn -0.098017 0.995185 -0.000000
vn -0.098017 0.995185 -0.000000
vn -0.195090 0.980785 -0.000000
vn -0.195090 0.980785 -0.000000
vn -0.290285 0.956940 -0.000000
vn -0.290285 0.956940 -0.000000
vn -0.382683 0.923880 -0.000000
vn -0.382683 0.923880 -0.000000
vn -0.471397 0.881921 -0.000000
vn -0.471397 0.881921 -0.000000
vn -0.555570 0.831470 -0.000000
vn -0.555570 0.831470 -0.000000
vn -0.634393 0.773010 -0.000000
vn -0.634393 0.773010 -0.000000
vn -0.707107 0.707107 -0.000000
vn -0.707107 0.707107 -0.000000
vn -0.773010 0.634393 -0.000000
vn -0.773010 0.634393 -0.000000
vn -0.831470 0.555570 -0.000000
vn -0.831470 0.555570 -0.000000
vn -0.881921 0.471397 -0.000000
vn -0.881921 0.471397 -0.000000
vn -0.923880 0.382683 -0.000000
vn -0.923880 0.382683 -0.000000
vn -0.956940 0.290285 -0.000000
vn -0.956940 0.290285 -0.000000
vn -0.980785 0.195090 -0.000000
vn -0.980785 0.195090 -0.000000
vn 0.000000 0.000000 1.000000
vn 0.000000 0.000000 1.000000
vn 0.000000 0.000000 1.000000
vn 0.000000 0.000000 1.000000
vn 0.000000 0.000000 1.000000
vn 0.000000 0.000000 1.000000
vn 0.000000 0.000000 1.000000
vn 0.000000 0.000000 1.000000
vn 0.000000 0.000000 1.000000
vn 0.000000 0.000000 1.000000
vn 0.000000 0.000000 1.000000
vn 0.000000 0.000000 1.000000
vn 0.000000 0.000000 1.000000
vn 0.000000 0.000000 1.000000
vn 0.000000 0.000000 1.000000
vn 0.000000 0.000000 1.000000
vn 0.000000 0.000000 1.000000
vn 0.000000 0.000000 1.000000
vn 0.000000 0.000000 1.000000
vn 0.000000 0.000000 1.000000
vn 0.000000 0.000000 1.000000
vn 0.000000 0.000000 1.000000
vn 0.000000 0.000000 1.000000
vn 0.000000 0.000000 1.000000
vn 0.000000 0.000000 1.000000
vn 0.000000 0.000000 1.000000
vn 0.000000 0.000000 1.000000
vn 0.000000 0.000000 1.000000
vn 0.000000 0.000000 1.000000
vn 0.000000 0.000000 1.000000
vn 0.000000 0.000000 1.000000
vn 0.000000 0.000000 1.000000
vn 0.000000 0.000000 1.000000
vn 0.000000 0.000000 1.000000
vn 0.000000 0.000000 1.000000
vn 0.000000 0.000000 1.000000
vn 0.000000 0.000000 1.000000
vn 0.000000 0.000000 1.000000
vn 0.000000 0.000000 1.000000
vn 0.000000 0.000000 1.000000
vn 0.000000 0.000000 1.000000
vn 0.000000 0.000000 1.000000
vn 0.000000 0.000000 1.000000
vn 0.000000 0.000000 1.000000
vn 0.000000 0.000000 1.000000
vn 0.000000 0.000000 1.000000
vn 0.000000 0.000000 1.000000
vn 0.000000 0.000000 1.000000
vn 0.000000 0.000000 1.000000
vn 0.000000 0.000000 1.000000
vn 0.000000 0.000000 1.000000
vn 0.000000 0.000000 1.000000
vn 0.000000 0.000000 1.000000
vn 0.000000 0.000000 1.000000
vn 0.000000 0.000000 1.000000
vn 0.000000 0.000000 1.000000
vn 0.000000 0.000000 1.000000
vn 0.000000 0.000000 1.000000
vn 0.000000 0.000000 1.000000
vn 0.000000 0.000000 1.000000
vn 0.000000 0.000000 1.000000
vn 0.000000 0.000000 1.000000
vn 0.000000 0.000000 1.000000
vn 0.000000 0.000000 1.000000
vn 0.000000 0.000000 1.000000
vn 0.000000 0.000000 1.000000
vn 0.000000 0.000000 1.000000
vn 0.000000 0.000000 1.000000
vn 0.000000 0.000000 1.000000
vn 0.000000 0.000000 1.000000
vn 0.000000 0.000000 1.000000
vn 0.000000 0.000000 1.000000
vn 0.000000 0.000000 1.000000
vn 0.000000 0.000000 1.000000
vn 0.000000 0.000000 1.000000
vn 0.000000 0.000000 1.000000
vn 0.000000 0.000000 1.000000
vn 0.000000 0.000000 1.000000
vn 0.000000 0.000000 1.000000
vn 0.000000 0.000000 1.000000
vn 0.000000 0.000000 1.000000
vn 0.000000 0.000000 1.000000
vn 0.000000 0.000000 1.000000
vn 0.000000 0.000000 1.000000
vn 0.000000 0.000000 1.000000
vn 0.000000 0.000000 1.000000
vn 0.000000 0.000000 1.000000
vn 0.000000 0.000000 1.000000
vn 0.000000 0.000000 1.000000
vn 0.000000 0.000000 1.000000
vn 0.000000 0.000000 1.000000
vn 0.000000 0.000000 1.000000
vn 0.000000 0.000000 1.000000
vn 0.000000 0.000000 1.000000
vn 0.000000 0.000000 1.000000
vn 0.000000 0.000000 1.000000
vn 0.000000 0.000000 1.000000
vn 0.000000 0.000000 1.000000
vn 0.000000 0.000000 1.000000
vn 0.000000 0.000000 1.000000
vn 0.000000 0.000000 1.000000
vn 0.000000 0.000000 1.000000
vn 0.000000 0.000000 1.000000
vn 0.000000 0.000000 1.000000
vn 0.000000 0.000000 1.000000
vn 0.000000 0.000000 1.000000
vn 0.000000 0.000000 1.000000
vn 0.000000 0.000000 1.000000
vn 0.000000 0.000000 1.000000
vn 0.000000 0.000000 1.000000
vn 0.000000 0.000000 1.000000
vn 0.000000 0.000000 1.000000
vn 0.000000 0.000000 1.000000
vn 0.000000 0.000000 1.000000
vn 0.000000 0.000000 1.000000
vn 0.000000 0.000000 1.000000
vn 0.000000 0.000000 1.000000
vn 0.000000 0.000000 1.000000
vn 0.000000 0.000000 1.000000
vn 0.000000 0.000000 1.000000
vn 0.000000 0.000000 1.000000
vn 0.000000 0.000000 1.000000
vn 0.000000 0.000000 1.000000
vn 0.000000 0.000000 1.000000
vn 0.000000 0.000000 1.000000
vn 0.000000 0.000000 1.000000
vn 0.000000 0.000000 1.000000
vn 0.000000 0.000000 1.000000
vn -0.000000 -0.000000 -1.000000
vn -0.000000 -0.000000 -1.000000
vn -0.000000 -0.000000 -1.000000
vn -0.000000 -0.000000 -1.000000
vn -0.000000 -0.000000 -1.000000
vn -0.000000 -0.000000 -1.000000
vn -0.000000 -0.000000 -1.000000
vn -0.000000 -0.000000 -1.000000
vn -0.000000 -0.000000 -1.000000
vn -0.000000 -0.000000 -1.000000
vn -0.000000 -0.000000 -1.000000
vn -0.000000 -0.000000 -1.000000
vn -0.000000 -0.000000 -1.000000
vn -0.000000 -0.000000 -1.000000
vn -0.000000 -0.000000 -1.000000
vn -0.000000 -0.000000 -1.000000
vn -0.000000 -0.000000 -1.000000
vn -0.000000 -0.000000 -1.000000
vn -0.000000 -0.000000 -1.000000
vn -0.000000 -0.000000 -1.000000
vn -0.000000 -0.000000 -1.000000
vn -0.000000 -0.000000 -1.000000
vn -0.000000 -0.000000 -1.000000
vn -0.000000 -0.000000 -1.000000
vn -0.000000 -0.000000 -1.000000
vn -0.000000 -0.000000 -1.000000
vn -0.000000 -0.000000 -1.000000
vn -0.000000 -0.000000 -1.000000
vn -0.000000 -0.000000 -1.000000
vn -0.000000 -0.000000 -1.000000
vn -0.000000 -0.000000 -1.000000
vn -0.000000 -0.000000 -1.000000
vn -0.000000 -0.000000 -1.000000
vn -0.000000 -0.000000 -1.000000
vn -0.000000 -0.000000 -1.000000
vn -0.000000 -0.000000 -1.000000
vn -0.000000 -0.000000 -1.000000
vn -0.000000 -0.000000 -1.000000
vn -0.000000 -0.000000 -1.000000
vn -0.000000 -0.000000 -1.000000
vn -0.000000 -0.000000 -1.000000
vn -0.000000 -0.000000 -1.000000
vn -0.000000 -0.000000 -1.000000
vn -0.000000 -0.000000 -1.000000
vn -0.000000 -0.000000 -1.000000
vn -0.000000 -0.000000 -1.000000
vn -0.000000 -0.000000 -1.000000
vn -0.000000 -0.000000 -1.000000
vn -0.000000 -0.000000 -1.000000
vn -0.000000 -0.000000 -1.000000
vn -0.000000 -0.000000 -1.000000
vn -0.000000 -0.000000 -1.000000
vn -0.000000 -0.000000 -1.000000
vn -0.000000 -0.000000 -1.000000
vn -0.000000 -0.000000 -1.000000
vn -0.000000 -0.000000 -1.000000
vn -0.000000 -0.000000 -1.000000
vn -0.000000 -0.000000 -1.000000
vn -0.000000 -0.000000 -1.000000
vn -0.000000 -0.000000 -1.000000
vn -0.000000 -0.000000 -1.000000
vn -0.000000 -0.000000 -1.000000
vn -0.000000 -0.000000 -1.000000
vn -0.000000 -0.000000 -1.000000
usemtl ABS_(White)
f 2/1/1 32/2/2 1/3/3
f 1/3/3 32/2/2 33/4/4
f 1/3/3 33/4/4 64/5/5
f 64/5/5 33/4/4 34/6/6
f 64/5/5 34/6/6 63/7/7
f 63/7/7 34/6/6 35/8/8
f 63/7/7 35/8/8 62/9/9
f 62/9/9 35/8/8 36/10/10
f 62/9/9 36/10/10 61/11/11
f 61/11/11 36/10/10 37/12/12
f 61/11/11 37/12/12 60/13/13
f 60/13/13 37/12/12 38/14/14
f 60/13/13 38/14/14 59/15/15
f 59/15/15 38/14/14 39/16/16
f 59/15/15 39/16/16 58/17/17
f 58/17/17 39/16/16 40/18/18
f 58/17/17 40/18/18 57/19/19
f 57/19/19 40/18/18 41/20/20
f 57/19/19 41/20/20 56/21/21
f 56/21/21 41/20/20 42/22/22
f 56/21/21 42/22/22 55/23/23
f 55/23/23 42/22/22 43/24/24
f 55/23/23 43/24/24 54/25/25
f 54/25/25 43/24/24 44/26/26
f 54/25/25 44/26/26 53/27/27
f 53/27/27 44/26/26 45/28/28
f 53/27/27 45/28/28 52/29/29
f 52/29/29 45/28/28 46/30/30
f 52/29/29 46/30/30 51/31/31
f 51/31/31 46/30/30 47/32/32
f 51/31/31 47/32/32 50/33/33
f 50/33/33 47/32/32 48/34/34
f 50/33/33 48/34/34 49/35/35
f 32/2/2 2/1/1 31/36/36
f 31/36/36 2/1/1 3/37/37
f 31/36/36 3/37/37 30/38/38
f 30/38/38 3/37/37 4/39/39
f 30/38/38 4/39/39 29/40/40
f 29/40/40 4/39/39 5/41/41
f 29/40/40 5/41/41 28/42/42
f 28/42/42 5/41/41 6/43/43
f 28/42/42 6/43/43 27/44/44
f 27/44/44 6/43/43 7/45/45
f 27/44/44 7/45/45 26/46/46
f 26/46/46 7/45/45 8/47/47
f 26/46/46 8/47/47 25/48/48
f 25/48/48 8/47/47 9/49/49
f 25/48/48 9/49/49 24/50/50
f 24/50/50 9/49/49 10/51/51
f 24/50/50 10/51/51 23/52/52
f 23/52/52 10/51/51 11/53/53
f 23/52/52 11/53/53 22/54/54
f 22/54/54 11/53/53 12/55/55
f 22/54/54 12/55/55 21/56/56
f 21/56/56 12/55/55 13/57/57
f 21/56/56 13/57/57 20/58/58
f 20/58/58 13/57/57 14/59/59
f 20/58/58 14/59/59 19/60/60
f 19/60/60 14/59/59 15/61/61
f 19/60/60 15/61/61 18/62/62
f 18/62/62 15/61/61 16/63/63
f 18/62/62 16/63/63 17/64/64
f 64/65/65 128/66/66 1/67/67
f 1/67/67 128/66/66 65/68/68
f 1/69/67 65/70/68 2/71/69
f 2/71/69 65/70/68 66/72/70
f 2/71/69 66/72/70 67/73/71
f 64/65/65 63/74/72 128/66/66
f 128/66/66 63/74/72 127/75/73
f 127/75/73 63/74/72 62/76/74
f 127/75/73 62/76/74 126/77/75
f 126/77/75 62/76/74 61/78/76
f 126/77/75 61/78/76 125/79/77
f 125/79/77 61/78/76 60/80/78
f 125/79/77 60/80/78 124/81/79
f 124/81/79 60/80/78 59/82/80
f 124/81/79 59/82/80 123/83/81
f 123/83/81 59/82/80 58/84/82
f 123/83/81 58/84/82 122/85/83
f 122/85/83 58/84/82 57/86/84
f 122/85/83 57/86/84 121/87/85
f 121/87/85 57/86/84 56/88/86
f 121/87/85 56/88/86 120/89/87
f 120/89/87 56/88/86 55/90/88
f 120/89/87 55/90/88 119/91/89
f 119/91/89 55/90/88 54/92/90
f 119/91/89 54/92/90 118/93/91
f 118/93/91 54/92/90 53/94/92
f 118/93/91 53/94/92 117/95/93
f 117/95/93 53/94/92 52/96/94
f 117/95/93 52/96/94 116/97/95
f 116/97/95 52/96/94 51/98/96
f 116/97/95 51/98/96 115/99/97
f 115/99/97 51/98/96 50/100/98
f 115/99/97 50/100/98 114/101/99
f 114/101/99 50/100/98 49/102/100
f 114/101/99 49/102/100 113/103/101
f 113/103/101 49/102/100 48/104/102
f 113/103/101 48/104/102 112/105/103
f 112/105/103 48/104/102 47/106/104
f 112/105/103 47/106/104 111/107/105
f 111/107/105 47/106/104 46/108/106
f 111/107/105 46/108/106 110/109/107
f 110/109/107 46/108/106 45/110/108
f 110/109/107 45/110/108 109/111/109
f 109/111/109 45/110/108 44/112/110
f 109/111/109 44/112/110 108/113/111
f 108/113/111 44/112/110 43/114/112
f 108/113/111 43/114/112 107/115/113
f 107/115/113 43/114/112 42/116/114
f 107/115/113 42/116/114 106/117/115
f 106/117/115 42/116/114 41/118/116
f 106/117/115 41/118/116 105/119/117
f 105/119/117 41/118/116 40/120/118
f 105/119/117 40/120/118 104/121/119
f 104/121/119 40/120/118 39/122/120
f 104/121/119 39/122/120 103/123/121
f 103/123/121 39/122/120 38/124/122
f 103/123/121 38/124/122 102/125/123
f 102/125/123 38/124/122 37/126/124
f 102/125/123 37/126/124 101/127/125
f 101/127/125 37/126/124 36/128/126
f 101/127/125 36/128/126 100/129/127
f 100/129/127 36/128/126 35/130/128
f 100/129/127 35/130/128 99/131/129
f 99/131/129 35/130/128 34/132/130
f 99/131/129 34/132/130 98/133/131
f 98/133/131 34/132/130 33/134/132
f 98/133/131 33/134/132 97/135/133
f 97/135/133 33/134/132 32/136/134
f 97/135/133 32/136/134 96/137/135
f 96/137/135 32/136/134 31/138/136
f 96/137/135 31/138/136 95/139/137
f 95/139/137 31/138/136 30/140/138
f 95/139/137 30/140/138 94/141/139
f 94/141/139 30/140/138 29/142/140
f 94/141/139 29/142/140 93/143/141
f 93/143/141 29/142/140 28/144/142
f 93/143/141 28/144/142 92/145/143
f 92/145/143 28/144/142 27/146/144
f 92/145/143 27/146/144 91/147/145
f 91/147/145 27/146/144 26/148/146
f 91/147/145 26/148/146 90/149/147
f 90/149/147 26/148/146 25/150/148
f 90/149/147 25/150/148 89/151/149
f 89/151/149 25/150/148 24/152/150
f 89/151/149 24/152/150 88/153/151
f 88/153/151 24/152/150 23/154/152
f 88/153/151 23/154/152 87/155/153
f 87/155/153 23/154/152 22/156/154
f 87/155/153 22/156/154 86/157/155
f 86/157/155 22/156/154 21/158/156
f 86/157/155 21/158/156 85/159/157
f 85/159/157 21/158/156 20/160/158
f 85/159/157 20/160/158 84/161/159
f 84/161/159 20/160/158 19/162/160
f 84/161/159 19/162/160 83/163/161
f 83/163/161 19/162/160 18/164/162
f 83/163/161 18/164/162 82/165/163
f 82/165/163 18/164/162 17/166/164
f 82/165/163 17/166/164 81/167/165
f 81/167/165 17/166/164 16/168/166
f 81/167/165 16/168/166 80/169/167
f 80/169/167 16/168/166 15/170/168
f 80/169/167 15/170/168 79/171/169
f 79/171/169 15/170/168 14/172/170
f 79/171/169 14/172/170 78/173/171
f 78/173/171 14/172/170 13/174/172
f 78/173/171 13/174/172 77/175/173
f 77/175/173 13/174/172 12/176/174
f 77/175/173 12/176/174 76/177/175
f 76/177/175 12/176/174 11/178/176
f 76/177/175 11/178/176 75/179/177
f 75/179/177 11/178/176 10/180/178
f 75/179/177 10/180/178 74/181/179
f 74/181/179 10/180/178 9/182/180
f 74/181/179 9/182/180 73/183/181
f 73/183/181 9/182/180 8/184/182
f 73/183/181 8/184/182 72/185/183
f 72/185/183 8/184/182 7/186/184
f 72/185/183 7/186/184 71/187/185
f 71/187/185 7/186/184 6/188/186
f 71/187/185 6/188/186 70/189/187
f 70/189/187 6/188/186 5/190/188
f 70/189/187 5/190/188 69/191/189
f 69/191/189 5/190/188 4/192/190
f 69/191/189 4/192/190 68/193/191
f 68/193/191 4/192/190 3/194/192
f 68/193/191 3/194/192 67/73/71
f 67/73/71 3/194/192 2/71/69
f 130/195/193 256/196/194 129/197/195
f 129/197/195 256/196/194 193/198/196
f 129/199/195 193/200/196 192/201/197
f 192/201/197 193/200/196 194/202/198
f 192/201/197 194/202/198 191/203/199
f 191/203/199 194/202/198 195/204/200
f 191/203/199 195/204/200 190/205/201
f 190/205/201 195/204/200 196/206/202
f 190/205/201 196/206/202 189/207/203
f 189/207/203 196/206/202 197/208/204
f 189/207/203 197/208/204 188/209/205
f 188/209/205 197/208/204 198/210/206
f 188/209/205 198/210/206 187/211/207
f 187/211/207 198/210/206 199/212/208
f 187/211/207 199/212/208 186/213/209
f 186/213/209 199/212/208 200/214/210
f 186/213/209 200/214/210 185/215/211
f 185/215/211 200/214/210 201/216/212
f 185/215/211 201/216/212 184/217/213
f 184/217/213 201/216/212 202/218/214
f 184/217/213 202/218/214 183/219/215
f 183/219/215 202/218/214 203/220/216
f 183/219/215 203/220/216 182/221/217
f 182/221/217 203/220/216 204/222/218
f 182/221/217 204/222/218 181/223/219
f 181/223/219 204/222/218 205/224/220
f 181/223/219 205/224/220 180/225/221
f 180/225/221 205/224/220 206/226/222
f 180/225/221 206/226/222 179/227/223
f 179/227/223 206/226/222 207/228/224
f 179/227/223 207/228/224 178/229/225
f 178/229/225 207/228/224 208/230/226
f 178/229/225 208/230/226 177/231/227
f 177/231/227 208/230/226 209/232/228
f 177/231/227 209/232/228 176/233/229
f 176/233/229 209/232/228 210/234/230
f 176/233/229 210/234/230 175/235/231
f 175/235/231 210/234/230 211/236/232
f 175/235/231 211/236/232 174/237/233
f 174/237/233 211/236/232 212/238/234
f 174/237/233 212/238/234 173/239/235
f 173/239/235 212/238/234 213/240/236
f 173/239/235 213/240/236 172/241/237
f 172/241/237 213/240/236 214/242/238
f 172/241/237 214/242/238 171/243/239
f 171/243/239 214/242/238 215/244/240
f 171/243/239 215/244/240 170/245/241
f 170/245/241 215/244/240 216/246/242
f 170/245/241 216/246/242 169/247/243
f 169/247/243 216/246/242 217/248/244
f 169/247/243 217/248/244 168/249/245
f 168/249/245 217/248/244 218/250/246
f 168/249/245 218/250/246 167/251/247
f 167/251/247 218/250/246 219/252/248
f 167/251/247 219/252/248 166/253/249
f 166/253/249 219/252/248 220/254/250
f 166/253/249 220/254/250 165/255/251
f 165/255/251 220/254/250 221/256/252
f 165/255/251 221/256/252 164/257/253
f 164/257/253 221/256/252 222/258/254
f 164/257/253 222/258/254 163/259/255
f 163/259/255 222/258/254 223/260/256
f 163/259/255 223/260/256 162/261/257
f 162/261/257 223/260/256 224/262/258
f 162/261/257 224/262/258 161/263/259
f 161/263/259 224/262/258 225/264/260
f 161/263/259 225/264/260 160/265/261
f 160/265/261 225/264/260 226/266/262
f 160/265/261 226/266/262 159/267/263
f 159/267/263 226/266/262 227/268/264
f 159/267/263 227/268/264 158/269/265
f 158/269/265 227/268/264 228/270/266
f 158/269/265 228/270/266 157/271/267
f 157/271/267 228/270/266 229/272/268
f 157/271/267 229/272/268 156/273/269
f 156/273/269 229/272/268 230/274/270
f 156/273/269 230/274/270 155/275/271
f 155/275/271 230/274/270 231/276/272
f 155/275/271 231/276/272 154/277/273
f 154/277/273 231/276/272 232/278/274
f 154/277/273 232/278/274 153/279/275
f 153/279/275 232/278/274 233/280/276
f 153/279/275 233/280/276 152/281/277
f 152/281/277 233/280/276 234/282/278
f 152/281/277 234/282/278 151/283/279
f 151/283/279 234/282/278 235/284/280
f 151/283/279 235/284/280 150/285/281
f 150/285/281 235/284/280 236/286/282
f 150/285/281 236/286/282 149/287/283
f 149/287/283 236/286/282 237/288/284
f 149/287/283 237/288/284 148/289/285
f 148/289/285 237/288/284 238/290/286
f 148/289/285 238/290/286 147/291/287
f 147/291/287 238/290/286 239/292/288
f 147/291/287 239/292/288 146/293/289
f 146/293/289 239/292/288 240/294/290
f 146/293/289 240/294/290 145/295/291
f 145/295/291 240/294/290 241/296/292
f 145/295/291 241/296/292 144/297/293
f 144/297/293 241/296/292 242/298/294
f 144/297/293 242/298/294 143/299/295
f 143/299/295 242/298/294 243/300/296
f 143/299/295 243/300/296 142/301/297
f 142/301/297 243/300/296 244/302/298
f 142/301/297 244/302/298 141/303/299
f 141/303/299 244/302/298 245/304/300
f 141/303/299 245/304/300 140/305/301
f 140/305/301 245/304/300 246/306/302
f 140/305/301 246/306/302 139/307/303
f 139/307/303 246/306/302 247/308/304
f 139/307/303 247/308/304 138/309/305
f 138/309/305 247/308/304 248/310/306
f 138/309/305 248/310/306 137/311/307
f 137/311/307 248/310/306 249/312/308
f 137/311/307 249/312/308 136/313/309
f 136/313/309 249/312/308 250/314/310
f 136/313/309 250/314/310 135/315/311
f 135/315/311 250/314/310 251/316/312
f 135/315/311 251/316/312 134/317/313
f 134/317/313 251/316/312 252/318/314
f 134/317/313 252/318/314 133/319/315
f 133/319/315 252/318/314 253/320/316
f 133/319/315 253/320/316 132/321/317
f 132/321/317 253/320/316 254/322/318
f 132/321/317 254/322/318 131/323/319
f 131/323/319 254/322/318 255/324/320
f 131/323/319 255/324/320 130/195/193
f 130/195/193 255/324/320 256/196/194
f 66/325/321 65/326/322 129/327/323
f 129/327/323 65/326/322 128/328/324
f 129/327/323 128/328/324 130/329/325
f 130/329/325 128/328/324 127/330/326
f 130/329/325 127/330/326 131/331/327
f 131/331/327 127/330/326 126/332/328
f 131/331/327 126/332/328 132/333/329
f 132/333/329 126/332/328 125/334/330
f 132/333/329 125/334/330 133/335/331
f 133/335/331 125/334/330 124/336/332
f 133/335/331 124/336/332 134/337/333
f 134/337/333 124/336/332 123/338/334
f 134/337/333 123/338/334 135/339/335
f 135/339/335 123/338/334 122/340/336
f 135/339/335 122/340/336 136/341/337
f 136/341/337 122/340/336 121/342/338
f 136/341/337 121/342/338 137/343/339
f 137/343/339 121/342/338 120/344/340
f 137/343/339 120/344/340 138/345/341
f 138/345/341 120/344/340 119/346/342
f 138/345/341 119/346/342 139/347/343
f 139/347/343 119/346/342 118/348/344
f 139/347/343 118/348/344 140/349/345
f 140/349/345 118/348/344 117/350/346
f 140/349/345 117/350/346 141/351/347
f 141/351/347 117/350/346 116/352/348
f 141/351/347 116/352/348 142/353/349
f 142/353/349 116/352/348 115/354/350
f 142/353/349 115/354/350 143/355/351
f 143/355/351 115/354/350 114/356/352
f 143/355/351 114/356/352 144/357/353
f 144/357/353 114/356/352 113/358/354
f 144/357/353 113/358/354 145/359/355
f 145/359/355 113/358/354 146/360/356
f 146/360/356 113/358/354 112/361/357
f 146/360/356 112/361/357 147/362/358
f 147/362/358 112/361/357 111/363/359
f 147/362/358 111/363/359 148/364/360
f 148/364/360 111/363/359 110/365/361
f 148/364/360 110/365/361 149/366/362
f 149/366/362 110/365/361 109/367/363
f 149/366/362 109/367/363 150/368/364
f 150/368/364 109/367/363 108/369/365
f 150/368/364 108/369/365 151/370/366
f 151/370/366 108/369/365 107/371/367
f 151/370/366 107/371/367 152/372/368
f 152/372/368 107/371/367 106/373/369
f 152/372/368 106/373/369 153/374/370
f 153/374/370 106/373/369 105/375/371
f 153/374/370 105/375/371 154/376/372
f 154/376/372 105/375/371 104/377/373
f 154/376/372 104/377/373 155/378/374
f 155/378/374 104/377/373 103/379/375
f 155/378/374 103/379/375 156/380/376
f 156/380/376 103/379/375 102/381/377
f 156/380/376 102/381/377 157/382/378
f 157/382/378 102/381/377 101/383/379
f 157/382/378 101/383/379 158/384/380
f 158/384/380 101/383/379 100/385/381
f 158/384/380 100/385/381 159/386/382
f 159/386/382 100/385/381 99/387/383
f 159/386/382 99/387/383 160/388/384
f 160/388/384 99/387/383 98/389/385
f 160/388/384 98/389/385 161/390/386
f 161/390/386 98/389/385 97/391/387
f 161/390/386 97/391/387 162/392/388
f 162/392/388 97/391/387 96/393/389
f 162/392/388 96/393/389 95/394/390
f 162/392/388 95/394/390 163/395/391
f 163/395/391 95/394/390 94/396/392
f 163/395/391 94/396/392 164/397/393
f 164/397/393 94/396/392 93/398/394
f 164/397/393 93/398/394 165/399/395
f 165/399/395 93/398/394 92/400/396
f 165/399/395 92/400/396 166/401/397
f 166/401/397 92/400/396 91/402/398
f 166/401/397 91/402/398 167/403/399
f 167/403/399 91/402/398 90/404/400
f 167/403/399 90/404/400 168/405/401
f 168/405/401 90/404/400 89/406/402
f 168/405/401 89/406/402 169/407/403
f 169/407/403 89/406/402 88/408/404
f 169/407/403 88/408/404 170/409/405
f 170/409/405 88/408/404 87/410/406
f 170/409/405 87/410/406 171/411/407
f 171/411/407 87/410/406 86/412/408
f 171/411/407 86/412/408 172/413/409
f 172/413/409 86/412/408 85/414/410
f 172/413/409 85/414/410 173/415/411
f 173/415/411 85/414/410 84/416/412
f 173/415/411 84/416/412 174/417/413
f 174/417/413 84/416/412 83/418/414
f 174/417/413 83/418/414 175/419/415
f 175/419/415 83/418/414 82/420/416
f 175/419/415 82/420/416 176/421/417
f 176/421/417 82/420/416 81/422/418
f 176/421/417 81/422/418 177/423/419
f 177/423/419 81/422/418 178/424/420
f 178/424/420 81/422/418 80/425/421
f 178/424/420 80/425/421 179/426/422
f 179/426/422 80/425/421 79/427/423
f 179/426/422 79/427/423 180/428/424
f 180/428/424 79/427/423 78/429/425
f 180/428/424 78/429/425 181/430/426
f 181/430/426 78/429/425 77/431/427
f 181/430/426 77/431/427 182/432/428
f 182/432/428 77/431/427 76/433/429
f 182/432/428 76/433/429 183/434/430
f 183/434/430 76/433/429 75/435/431
f 183/434/430 75/435/431 184/436/432
f 184/436/432 75/435/431 74/437/433
f 184/436/432 74/437/433 185/438/434
f 185/438/434 74/437/433 73/439/435
f 185/438/434 73/439/435 186/440/436
f 186/440/436 73/439/435 72/441/437
f 186/440/436 72/441/437 187/442/438
f 187/442/438 72/441/437 71/443/439
f 187/442/438 71/443/439 188/444/440
f 188/444/440 71/443/439 70/445/441
f 188/444/440 70/445/441 189/446/442
f 189/446/442 70/445/441 69/447/443
f 189/446/442 69/447/443 190/448/444
f 190/448/444 69/447/443 68/449/445
f 190/448/444 68/449/445 191/450/446
f 191/450/446 68/449/445 67/451/447
f 191/450/446 67/451/447 192/452/448
f 192/452/448 67/451/447 66/325/321
f 192/452/448 66/325/321 129/327/323
f 256/453/449 226/454/450 193/455/451
f 193/455/451 226/454/450 225/456/452
f 193/455/451 225/456/452 194/457/453
f 194/457/453 225/456/452 224/458/454
f 194/457/453 224/458/454 195/459/455
f 195/459/455 224/458/454 223/460/456
f 195/459/455 223/460/456 196/461/457
f 196/461/457 223/460/456 222/462/458
f 196/461/457 222/462/458 197/463/459
f 197/463/459 222/462/458 221/464/460
f 197/463/459 221/464/460 198/465/461
f 198/465/461 221/464/460 220/466/462
f 198/465/461 220/466/462 199/467/463
f 199/467/463 220/466/462 219/468/464
f 199/467/463 219/468/464 200/469/465
f 200/469/465 219/468/464 218/470/466
f 200/469/465 218/470/466 201/471/467
f 201/471/467 218/470/466 217/472/468
f 201/471/467 217/472/468 202/473/469
f 202/473/469 217/472/468 216/474/470
f 202/473/469 216/474/470 203/475/471
f 203/475/471 216/474/470 215/476/472
f 203/475/471 215/476/472 204/477/473
f 204/477/473 215/476/472 214/478/474
f 204/477/473 214/478/474 205/479/475
f 205/479/475 214/478/474 213/480/476
f 205/479/475 213/480/476 206/481/477
f 206/481/477 213/480/476 212/482/478
f 206/481/477 212/482/478 207/483/479
f 207/483/479 212/482/478 211/484/480
f 207/483/479 211/484/480 208/485/481
f 208/485/481 211/484/480 210/486/482
f 208/485/481 210/486/482 209/487/483
f 226/454/450 256/453/449 227/488/484
f 227/488/484 256/453/449 255/489/485
f 227/488/484 255/489/485 228/490/486
f 228/490/486 255/489/485 254/491/487
f 228/490/486 254/491/487 229/492/488
f 229/492/488 254/491/487 253/493/489
f 229/492/488 253/493/489 230/494/490
f 230/494/490 253/493/489 252/495/491
f 230/494/490 252/495/491 231/496/492
f 231/496/492 252/495/491 251/497/493
f 231/496/492 251/497/493 232/498/494
f 232/498/494 251/497/493 250/499/495
f 232/498/494 250/499/495 233/500/496
f 233/500/496 250/499/495 249/501/497
f 233/500/496 249/501/497 234/502/498
f 234/502/498 249/501/497 248/503/499
f 234/502/498 248/503/499 235/504/500
f 235/504/500 248/503/499 247/505/501
f 235/504/500 247/505/501 236/506/502
f 236/506/502 247/505/501 246/507/503
f 236/506/502 246/507/503 237/508/504
f 237/508/504 246/507/503 245/509/505
f 237/508/504 245/509/505 238/510/506
f 238/510/506 245/509/505 244/511/507
f 238/510/506 244/511/507 239/512/508
f 239/512/508 244/511/507 243/513/509
f 239/512/508 243/513/509 240/514/510
f 240/514/510 243/513/509 242/515/511
f 240/514/510 242/515/511 241/516/512
# 256 vertices
# 516 texture params
# 512 normals
# 508 facets

# 1 groups
