# WaveFront *.obj file (generated by Autodesk ATF)

mtllib high_freq_visual.mtl

g high_freq

v 21.300000 -25.747500 -11.276905
v 21.300000 25.747500 -11.276905
v 21.300000 25.861047 -11.257808
v 21.300000 25.971157 -11.196112
v 21.300000 26.063519 -11.075715
v 21.300000 26.097500 -10.926905
v 21.300000 26.097500 10.926905
v 21.300000 26.050609 11.101905
v 21.300000 25.922500 11.230014
v 21.300000 25.747500 11.276905
v 21.300000 -25.747500 11.276905
v 21.300000 -25.922500 11.230014
v 21.300000 -26.050609 11.101905
v 21.300000 -26.097500 10.926905
v 21.300000 -26.097500 -10.926905
v 21.300000 -26.078403 -11.040452
v 21.300000 -26.016707 -11.150562
v 21.300000 -25.896310 -11.242923
v 1.300000 5.750476 -3.997500
v 1.300000 -5.750476 -3.997500
v 1.300000 -5.897989 -3.963883
v 1.300000 -6.017362 -3.872392
v 1.300000 -6.078564 -3.763172
v 1.300000 -6.097500 -3.650476
v 1.300000 -6.097500 3.650000
v 1.300000 -6.050944 3.823750
v 1.300000 -5.923750 3.950944
v 1.300000 -5.750000 3.997500
v 1.300000 5.750000 3.997500
v 1.300000 5.923750 3.950944
v 1.300000 6.050944 3.823750
v 1.300000 6.097500 3.650000
v 1.300000 6.097500 -3.650476
v 1.300000 6.063883 -3.797989
v 1.300000 5.972392 -3.917362
v 1.300000 5.863172 -3.978564
v 3.800000 8.250104 -4.907426
v 6.300000 10.749732 -5.817351
v 8.800000 13.249360 -6.727277
v 11.300000 15.748988 -7.637202
v 13.800000 18.248616 -8.547128
v 16.300000 20.748244 -9.457054
v 18.800000 23.247872 -10.366979
v 18.800000 -23.247872 -10.366979
v 16.300000 -20.748244 -9.457054
v 13.800000 -18.248616 -8.547128
v 11.300000 -15.748988 -7.637202
v 8.800000 -13.249360 -6.727277
v 6.300000 -10.749732 -5.817351
v 3.800000 -8.250104 -4.907426
v 16.300000 -21.097500 -9.107798
v 11.300000 -16.097500 -7.288690
v 6.300000 -11.097500 -5.469583
v 4.157143 -8.906024 -4.867295
v 4.157143 -8.687797 -5.027554
v 8.442857 -13.191642 -6.426840
v 7.014286 -11.544605 -6.067455
v 14.157143 -18.905804 -8.506237
v 14.157143 -18.686627 -8.667211
v 18.442857 -23.191423 -10.065783
v 17.014286 -21.543435 -9.707113
v 2.728571 -7.259393 -4.507603
v 2.728571 -7.433355 -4.406395
v 2.728571 -7.477485 -4.347448
v 4.157143 -8.861864 -4.926279
v 7.014286 -11.718886 -5.966049
v 7.014286 -11.763102 -5.906991
v 5.585714 -10.334563 -5.387143
v 5.585714 -10.290374 -5.446163
v 5.585714 -10.116201 -5.547504
v 9.871429 -14.401414 -7.107357
v 9.871429 -14.575909 -7.005821
v 9.871429 -14.620183 -6.946689
v 8.442857 -13.147397 -6.485935
v 8.442857 -12.973009 -6.587406
v 12.728571 -17.258222 -8.147260
v 12.728571 -17.432934 -8.045594
v 12.728571 -17.477264 -7.986388
v 11.300000 -16.048723 -7.466539
v 11.300000 -16.004422 -7.525708
v 11.300000 -15.829818 -7.627308
v 14.157143 -18.861446 -8.565480
v 17.014286 -21.718469 -9.605252
v 17.014286 -21.762884 -9.545935
v 15.585714 -20.334344 -9.026086
v 15.585714 -20.289957 -9.085366
v 15.585714 -20.115031 -9.187162
v 19.871429 -24.400243 -10.747014
v 19.871429 -24.575488 -10.645020
v 19.871429 -24.619961 -10.585630
v 18.442857 -23.146979 -10.125137
v 18.442857 -22.971839 -10.227063
v 18.800000 -23.597500 10.017292
v 16.300000 -21.097500 9.107679
v 13.800000 -18.597500 8.198065
v 11.300000 -16.097500 7.288452
v 8.800000 -13.597500 6.378839
v 6.300000 -11.097500 5.469226
v 3.800000 -8.597500 4.559613
v 18.800000 -23.247812 10.366979
v 16.300000 -20.748125 9.457054
v 13.800000 -18.248437 8.547128
v 11.300000 -15.748750 7.637202
v 8.800000 -13.249062 6.727277
v 6.300000 -10.749375 5.817351
v 3.800000 -8.249688 4.907426
v 11.305872 -15.882993 7.614854
v 11.247440 -16.020453 7.397701
v 11.263682 -15.959035 7.521841
v 18.800000 23.247812 10.366979
v 16.300000 20.748125 9.457054
v 13.800000 18.248437 8.547128
v 11.300000 15.748750 7.637202
v 8.800000 13.249062 6.727277
v 6.300000 10.749375 5.817351
v 3.800000 8.249687 4.907426
v 18.800000 23.597500 10.017292
v 16.300000 21.097500 9.107679
v 13.800000 18.597500 8.198065
v 11.300000 16.097500 7.288452
v 8.800000 13.597500 6.378839
v 6.300000 11.097500 5.469226
v 3.800000 8.597500 4.559613
v 11.302432 15.879553 7.613602
v 11.244000 16.017013 7.396449
v 11.260242 15.955595 7.520589
v 16.300000 21.097500 -9.107798
v 11.300000 16.097500 -7.288690
v 6.300000 11.097500 -5.469583
v 5.585714 10.127536 -5.544843
v 4.157143 8.944781 -4.770569
v 7.014286 11.555947 -6.064792
v 8.442857 13.230476 -6.329940
v 15.585714 20.126414 -9.184489
v 14.157143 18.944736 -8.409101
v 17.014286 21.554825 -9.704439
v 18.442857 23.230431 -9.968472
v 2.728571 7.516217 -4.250779
v 2.728571 7.415009 -4.424741
v 2.728571 7.356062 -4.468871
v 2.728571 7.270715 -4.504946
v 7.014286 11.801911 -5.810149
v 7.014286 11.700505 -5.984430
v 7.014286 11.641447 -6.028646
v 5.585714 10.212985 -5.508721
v 5.585714 10.272005 -5.464533
v 5.585714 10.373346 -5.290359
v 12.728571 17.516171 -7.889311
v 12.728571 17.414506 -8.064022
v 12.728571 17.355300 -8.108352
v 12.728571 17.269592 -8.144590
v 11.300000 15.841181 -7.624641
v 11.300000 15.926836 -7.588426
v 11.300000 15.986005 -7.544124
v 11.300000 16.087606 -7.369520
v 17.014286 21.801866 -9.448682
v 17.014286 21.700005 -9.623715
v 17.014286 21.640688 -9.668130
v 15.585714 20.212226 -9.148205
v 15.585714 20.271506 -9.103818
v 15.585714 20.373301 -8.928891
v 19.871429 24.411646 -10.744336
v 19.871429 24.497611 -10.707980
v 19.871429 24.557002 -10.663507
v 19.871429 24.658995 -10.488262
v 18.442857 22.983235 -10.224387
v 18.442857 23.069150 -10.188055
v 18.442857 23.128504 -10.143612
v 14.157143 18.843006 -8.583920
v 14.157143 18.783763 -8.628279
v 14.157143 18.698003 -8.664540
v 9.871429 14.412769 -7.104691
v 9.871429 14.498373 -7.068499
v 9.871429 14.557505 -7.024226
v 9.871429 14.659041 -6.849730
v 8.442857 12.984358 -6.584742
v 8.442857 13.069910 -6.548573
v 8.442857 13.129005 -6.504328
v 4.157143 8.843506 -4.944636
v 4.157143 8.784523 -4.988796
v 4.157143 8.699126 -5.024894
vt -11.276905 -25.747500 0.000000
vt -10.926905 26.097500 0.000000
vt -11.276905 25.747500 0.000000
vt -11.040452 26.078403 0.000000
vt -11.150562 26.016707 0.000000
vt -11.257808 -25.861047 0.000000
vt -11.196112 -25.971157 0.000000
vt -11.075715 -26.063519 0.000000
vt -10.926905 -26.097500 0.000000
vt 10.926905 -26.097500 0.000000
vt 10.926905 26.097500 0.000000
vt 11.276905 -25.747500 0.000000
vt 11.276905 25.747500 0.000000
vt 11.101905 -26.050609 0.000000
vt 11.230014 -25.922500 0.000000
vt 11.230014 25.922500 0.000000
vt 11.101905 26.050609 0.000000
vt -11.242923 25.896310 0.000000
vt 3.997443 5.750476 0.000000
vt 3.650420 6.097500 0.000000
vt 3.997443 -5.750476 0.000000
vt 3.650420 -6.097500 0.000000
vt 3.797933 -6.063883 0.000000
vt 3.963826 5.897989 0.000000
vt 3.872336 6.017362 0.000000
vt 3.763115 6.078564 0.000000
vt -3.650057 -6.097500 0.000000
vt -3.650057 6.097500 0.000000
vt -3.997557 -5.750000 0.000000
vt -3.997557 5.750000 0.000000
vt -3.823807 6.050944 0.000000
vt -3.951000 5.923750 0.000000
vt -3.951000 -5.923750 0.000000
vt -3.823807 -6.050944 0.000000
vt 3.917306 -5.972392 0.000000
vt 3.978507 -5.863172 0.000000
vt -11.500952 0.000000 0.000000
vt 0.000000 0.000000 0.000000
vt -14.000580 2.660444 0.000000
vt 2.499628 2.660444 0.000000
vt -16.500208 5.320889 0.000000
vt 4.999256 5.320889 0.000000
vt -18.999836 7.981333 0.000000
vt 7.498884 7.981333 0.000000
vt -21.499464 10.641778 0.000000
vt 9.998512 10.641778 0.000000
vt -23.999092 13.302222 0.000000
vt 12.498140 13.302222 0.000000
vt -26.498720 15.962667 0.000000
vt 14.997768 15.962667 0.000000
vt -28.998348 18.623111 0.000000
vt 17.497396 18.623111 0.000000
vt -31.497976 21.283555 0.000000
vt 19.997024 21.283555 0.000000
vt -0.430954 0.000000 0.000000
vt -0.359867 2.086081 0.000000
vt -0.545692 0.000000 0.000000
vt -0.359867 4.172163 0.000000
vt -0.545692 7.301285 0.000000
vt -0.359867 6.258244 0.000000
vt -0.359867 8.344325 0.000000
vt -0.285839 6.258244 0.000000
vt -0.285839 8.344325 0.000000
vt -0.081431 6.258244 0.000000
vt -0.081431 8.344325 0.000000
vt -0.000000 7.301285 0.000000
vt -0.000000 10.951927 0.000000
vt -0.304798 0.000001 0.000000
vt -0.285839 2.086081 0.000000
vt -0.285839 4.172163 0.000000
vt -0.152746 0.000000 0.000000
vt -0.081431 2.086081 0.000000
vt -0.081431 4.172163 0.000000
vt -0.000000 0.000000 0.000000
vt -0.000000 3.650642 0.000000
vt -0.000000 14.602569 0.000000
vt -0.081431 12.516488 0.000000
vt -0.081431 10.430406 0.000000
vt -0.285839 10.430406 0.000000
vt -0.359867 10.430406 0.000000
vt -0.000000 18.253211 0.000000
vt -0.081431 16.688650 0.000000
vt -0.081431 14.602569 0.000000
vt -0.285839 14.602569 0.000000
vt -0.285839 12.516488 0.000000
vt -0.359867 14.602569 0.000000
vt -0.359867 12.516488 0.000000
vt -0.545692 14.602569 0.000000
vt -0.081431 18.774732 0.000000
vt -0.000000 21.903854 0.000000
vt -0.081431 20.860813 0.000000
vt -0.081431 22.946894 0.000000
vt -0.285839 22.946894 0.000000
vt -0.285839 25.032975 0.000000
vt -0.359867 25.032975 0.000000
vt -0.359867 27.119057 0.000000
vt -0.545692 29.205138 0.000000
vt -0.431004 29.205138 0.000000
vt -0.304924 29.205138 0.000000
vt -0.285839 27.119057 0.000000
vt -0.152862 29.205138 0.000000
vt -0.081431 27.119057 0.000000
vt -0.000000 29.205138 0.000000
vt -0.000000 25.554496 0.000000
vt -0.081431 25.032975 0.000000
vt -0.545692 21.903854 0.000000
vt -0.359867 22.946894 0.000000
vt -0.285839 20.860813 0.000000
vt -0.359867 18.774732 0.000000
vt -0.359867 20.860813 0.000000
vt -0.359867 16.688650 0.000000
vt -0.285839 16.688650 0.000000
vt -0.285839 18.774732 0.000000
vt -7.300476 -0.000000 0.000000
vt -0.000000 0.000000 0.000000
vt -8.210089 3.535534 0.000000
vt 1.819107 7.071068 0.000000
vt -9.119702 7.071068 0.000000
vt -10.029315 10.606602 0.000000
vt 3.638214 14.142136 0.000000
vt -10.938929 14.142136 0.000000
vt -11.848542 17.677670 0.000000
vt 5.457321 21.213203 0.000000
vt -12.758155 21.213203 0.000000
vt -13.667768 24.748737 0.000000
vt 7.276428 28.284271 0.000000
vt -14.577381 28.284271 0.000000
vt 25.466529 -0.977365 0.000000
vt 29.117064 -0.977365 0.000000
vt 14.424548 -0.839931 0.000000
vt 29.009687 -0.789857 0.000000
vt 14.424548 -0.702496 0.000000
vt 28.954284 -0.615130 0.000000
vt 14.424548 -0.565062 0.000000
vt 25.315028 -0.427627 0.000000
vt 21.664358 -0.427627 0.000000
vt 28.965699 -0.427627 0.000000
vt 18.013687 -0.427627 0.000000
vt 14.363016 -0.427627 0.000000
vt 10.712346 -0.427627 0.000000
vt 7.061675 -0.427627 0.000000
vt 3.411005 -0.427627 0.000000
vt -0.239666 -0.427627 0.000000
vt -0.251163 -0.615130 0.000000
vt -0.195361 -0.789857 0.000000
vt -0.087212 -0.977365 0.000000
vt 3.563322 -0.977365 0.000000
vt 7.213857 -0.977365 0.000000
vt 10.864391 -0.977365 0.000000
vt 14.514926 -0.977365 0.000000
vt 18.165460 -0.977365 0.000000
vt 21.815995 -0.977365 0.000000
vt -11.500000 -0.000000 0.000000
vt -0.000000 0.000000 0.000000
vt -13.999688 2.660444 0.000000
vt 2.499688 2.660444 0.000000
vt -16.499375 5.320889 0.000000
vt 4.999375 5.320889 0.000000
vt -18.999063 7.981333 0.000000
vt 7.499063 7.981333 0.000000
vt -21.498750 10.641778 0.000000
vt 9.998750 10.641778 0.000000
vt -23.998438 13.302222 0.000000
vt 12.498438 13.302222 0.000000
vt -26.498125 15.962667 0.000000
vt 14.998125 15.962667 0.000000
vt -28.997813 18.623111 0.000000
vt 17.497813 18.623111 0.000000
vt -31.497500 21.283555 0.000000
vt 19.997500 21.283555 0.000000
vt -25.315028 -0.427627 0.000000
vt -28.965699 -0.427627 0.000000
vt -14.429572 -0.565062 0.000000
vt -28.954284 -0.615130 0.000000
vt -14.429572 -0.702496 0.000000
vt -29.009687 -0.789857 0.000000
vt -14.429572 -0.839931 0.000000
vt -25.466529 -0.977365 0.000000
vt -21.815995 -0.977365 0.000000
vt -29.117064 -0.977365 0.000000
vt -18.165460 -0.977365 0.000000
vt -14.514926 -0.977365 0.000000
vt -10.864391 -0.977365 0.000000
vt -7.213857 -0.977365 0.000000
vt -3.563322 -0.977365 0.000000
vt 0.087212 -0.977365 0.000000
vt 0.195361 -0.789857 0.000000
vt 0.251163 -0.615130 0.000000
vt 0.239666 -0.427627 0.000000
vt -3.411005 -0.427627 0.000000
vt -7.061675 -0.427627 0.000000
vt -10.712346 -0.427627 0.000000
vt -14.363016 -0.427627 0.000000
vt -18.013687 -0.427627 0.000000
vt -21.664358 -0.427627 0.000000
vt -0.000000 0.000000 0.000000
vt 0.909613 3.535534 0.000000
vt -7.300476 -0.000000 0.000000
vt -9.119583 7.071068 0.000000
vt 1.819226 7.071068 0.000000
vt 2.728839 10.606602 0.000000
vt -10.938690 14.142136 0.000000
vt 3.638452 14.142136 0.000000
vt 4.548065 17.677670 0.000000
vt -12.757798 21.213203 0.000000
vt 5.457679 21.213203 0.000000
vt 6.367292 24.748737 0.000000
vt 7.276905 28.284271 0.000000
vt -14.576905 28.284271 0.000000
vt -0.545692 3.650642 0.000000
vt -0.545692 0.000000 0.000000
vt -0.452780 2.086081 0.000000
vt -0.430954 0.000000 0.000000
vt -0.359867 2.086081 0.000000
vt -0.304798 0.000001 0.000000
vt -0.285839 2.086081 0.000000
vt -0.152746 0.000000 0.000000
vt -0.081431 2.086081 0.000000
vt -0.000000 0.000000 0.000000
vt -0.000000 7.301284 0.000000
vt -0.000000 14.602569 0.000000
vt -0.081431 8.344325 0.000000
vt -0.081431 6.258244 0.000000
vt -0.081431 4.172163 0.000000
vt -0.285839 6.258244 0.000000
vt -0.285839 4.172163 0.000000
vt -0.359867 6.258244 0.000000
vt -0.359867 4.172163 0.000000
vt -0.452780 6.258244 0.000000
vt -0.452780 4.172163 0.000000
vt -0.000000 21.903853 0.000000
vt -0.081431 16.688650 0.000000
vt -0.081431 14.602569 0.000000
vt -0.081431 12.516488 0.000000
vt -0.285839 14.602569 0.000000
vt -0.285839 12.516488 0.000000
vt -0.359867 14.602569 0.000000
vt -0.359867 12.516488 0.000000
vt -0.452780 14.602569 0.000000
vt -0.452780 12.516488 0.000000
vt -0.545692 14.602569 0.000000
vt -0.545692 10.951927 0.000000
vt -0.000000 29.205138 0.000000
vt -0.081431 22.946894 0.000000
vt -0.081431 20.860813 0.000000
vt -0.081431 18.774731 0.000000
vt -0.285839 20.860813 0.000000
vt -0.285839 18.774731 0.000000
vt -0.359867 20.860813 0.000000
vt -0.359867 18.774731 0.000000
vt -0.452780 20.860813 0.000000
vt -0.452780 18.774731 0.000000
vt -0.545692 18.253211 0.000000
vt -0.452780 16.688650 0.000000
vt -0.152862 29.205138 0.000000
vt -0.081431 27.119056 0.000000
vt -0.081431 25.032975 0.000000
vt -0.285839 25.032975 0.000000
vt -0.285839 22.946894 0.000000
vt -0.359867 25.032975 0.000000
vt -0.359867 22.946894 0.000000
vt -0.452780 25.032975 0.000000
vt -0.452780 22.946894 0.000000
vt -0.545692 25.554495 0.000000
vt -0.545692 21.903853 0.000000
vt -0.285839 27.119056 0.000000
vt -0.304924 29.205138 0.000000
vt -0.359867 27.119056 0.000000
vt -0.431004 29.205138 0.000000
vt -0.452780 27.119056 0.000000
vt -0.545692 29.205138 0.000000
vt -0.545692 7.301284 0.000000
vt -0.452780 8.344325 0.000000
vt -0.452780 10.430406 0.000000
vt -0.359867 10.430406 0.000000
vt -0.285839 10.430406 0.000000
vt -0.081431 10.430406 0.000000
vt -0.285839 8.344325 0.000000
vt -0.359867 8.344325 0.000000
vt -0.285839 16.688650 0.000000
vt -0.359867 16.688650 0.000000
vn 1.000000 -0.000000 0.000000
vn 1.000000 -0.000000 0.000000
vn 1.000000 -0.000000 0.000000
vn 1.000000 -0.000000 0.000000
vn 1.000000 -0.000000 0.000000
vn 1.000000 -0.000000 0.000000
vn 1.000000 -0.000000 0.000000
vn 1.000000 -0.000000 0.000000
vn 1.000000 -0.000000 0.000000
vn 1.000000 -0.000000 0.000000
vn 1.000000 -0.000000 0.000000
vn 1.000000 -0.000000 0.000000
vn 1.000000 -0.000000 0.000000
vn 1.000000 -0.000000 0.000000
vn 1.000000 -0.000000 0.000000
vn 1.000000 -0.000000 0.000000
vn 1.000000 -0.000000 0.000000
vn 1.000000 -0.000000 0.000000
vn -1.000000 0.000000 -0.000000
vn -1.000000 0.000000 -0.000000
vn -1.000000 0.000000 -0.000000
vn -1.000000 0.000000 -0.000000
vn -1.000000 0.000000 -0.000000
vn -1.000000 0.000000 -0.000000
vn -1.000000 0.000000 -0.000000
vn -1.000000 0.000000 -0.000000
vn -1.000000 0.000000 -0.000000
vn -1.000000 0.000000 -0.000000
vn -1.000000 0.000000 -0.000000
vn -1.000000 0.000000 -0.000000
vn -1.000000 0.000000 -0.000000
vn -1.000000 0.000000 -0.000000
vn -1.000000 0.000000 -0.000000
vn -1.000000 0.000000 -0.000000
vn -1.000000 0.000000 -0.000000
vn -1.000000 0.000000 -0.000000
vn -0.342020 0.000000 -0.939693
vn -0.342020 0.000000 -0.939693
vn -0.342020 0.000000 -0.939693
vn -0.342020 0.000000 -0.939693
vn -0.342020 0.000000 -0.939693
vn -0.342020 0.000000 -0.939693
vn -0.342020 0.000000 -0.939693
vn -0.342020 0.000000 -0.939693
vn -0.342020 0.000000 -0.939693
vn -0.342020 0.000000 -0.939693
vn -0.342020 0.000000 -0.939693
vn -0.342020 0.000000 -0.939693
vn -0.342020 0.000000 -0.939693
vn -0.342020 0.000000 -0.939693
vn -0.342020 0.000000 -0.939693
vn -0.342020 0.000000 -0.939693
vn -0.342020 0.000000 -0.939693
vn -0.342020 0.000000 -0.939693
vn -0.728663 -0.647943 -0.221857
vn -0.722880 -0.595144 -0.351067
vn -0.707107 -0.707107 0.000000
vn -0.722879 -0.595137 -0.351081
vn -0.707107 -0.707107 -0.000000
vn -0.722878 -0.595131 -0.351093
vn -0.722878 -0.595127 -0.351101
vn -0.699302 -0.521348 -0.489054
vn -0.699301 -0.521346 -0.489056
vn -0.509238 -0.205044 -0.835843
vn -0.509249 -0.205058 -0.835833
vn -0.707252 -0.542161 -0.453714
vn -0.699302 -0.521351 -0.489050
vn -0.699302 -0.521349 -0.489052
vn -0.602803 -0.340150 -0.721753
vn -0.509210 -0.205007 -0.835869
vn -0.509226 -0.205027 -0.835855
vn -0.509266 -0.205081 -0.835817
vn -0.509258 -0.205070 -0.835824
vn -0.699301 -0.521345 -0.489058
vn -0.722877 -0.595124 -0.351107
vn -0.509281 -0.205101 -0.835803
vn -0.509273 -0.205091 -0.835810
vn -0.699300 -0.521341 -0.489063
vn -0.699300 -0.521343 -0.489061
vn -0.722876 -0.595120 -0.351115
vn -0.722877 -0.595122 -0.351111
vn -0.707107 -0.707107 -0.000000
vn -0.509289 -0.205112 -0.835796
vn -0.509298 -0.205124 -0.835787
vn -0.509308 -0.205138 -0.835777
vn -0.699297 -0.521335 -0.489074
vn -0.699296 -0.521334 -0.489076
vn -0.722872 -0.595105 -0.351150
vn -0.722870 -0.595098 -0.351164
vn -0.707107 -0.707107 0.000000
vn -0.728664 -0.647909 -0.221952
vn -0.707288 -0.542262 -0.453538
vn -0.699295 -0.521333 -0.489078
vn -0.603030 -0.340507 -0.721394
vn -0.509335 -0.205175 -0.835752
vn -0.509320 -0.205155 -0.835766
vn -0.707107 -0.707107 -0.000000
vn -0.722874 -0.595110 -0.351138
vn -0.699298 -0.521337 -0.489071
vn -0.722875 -0.595116 -0.351124
vn -0.722875 -0.595114 -0.351130
vn -0.722876 -0.595118 -0.351119
vn -0.699299 -0.521340 -0.489066
vn -0.699298 -0.521338 -0.489069
vn -0.707107 -0.707107 -0.000000
vn -0.707107 -0.707107 -0.000000
vn -0.707107 -0.707107 -0.000000
vn -0.707107 -0.707107 -0.000000
vn -0.707107 -0.707107 -0.000000
vn -0.707107 -0.707107 -0.000000
vn -0.707107 -0.707107 -0.000000
vn -0.707107 -0.707107 -0.000000
vn -0.707107 -0.707107 -0.000000
vn -0.342020 -0.000000 0.939693
vn -0.342020 -0.000000 0.939693
vn -0.577003 -0.300634 0.759399
vn -0.631835 -0.387552 0.671259
vn -0.694185 -0.508969 0.508977
vn -0.723469 -0.597866 0.345178
vn -0.728594 -0.636853 0.252128
vn -0.707107 -0.707107 0.000000
vn -0.707107 -0.707107 0.000000
vn -0.707107 -0.707107 0.000000
vn -0.707107 -0.707107 0.000000
vn -0.707107 -0.707107 0.000000
vn -0.707107 -0.707107 0.000000
vn -0.707107 -0.707107 0.000000
vn -0.707107 -0.707107 0.000000
vn -0.707107 -0.707107 0.000000
vn -0.723469 -0.597866 0.345178
vn -0.631835 -0.387552 0.671259
vn -0.342020 -0.000000 0.939693
vn -0.342020 -0.000000 0.939693
vn -0.342020 -0.000000 0.939693
vn -0.342020 -0.000000 0.939693
vn -0.342020 -0.000000 0.939693
vn -0.342020 -0.000000 0.939693
vn -0.342020 -0.000000 0.939693
vn -0.342020 -0.000000 0.939693
vn -0.342020 -0.000000 0.939693
vn -0.342020 -0.000000 0.939693
vn -0.342020 -0.000000 0.939693
vn -0.342020 -0.000000 0.939693
vn -0.342020 -0.000000 0.939693
vn -0.342020 -0.000000 0.939693
vn -0.342020 -0.000000 0.939693
vn -0.342020 -0.000000 0.939693
vn -0.342020 -0.000000 0.939693
vn -0.342020 -0.000000 0.939693
vn -0.342020 -0.000000 0.939693
vn -0.342020 -0.000000 0.939693
vn -0.342020 -0.000000 0.939693
vn -0.342020 -0.000000 0.939693
vn -0.342020 -0.000000 0.939693
vn -0.342020 -0.000000 0.939693
vn -0.342020 -0.000000 0.939693
vn -0.707107 0.707107 0.000000
vn -0.707107 0.707107 0.000000
vn -0.728594 0.636853 0.252128
vn -0.723469 0.597866 0.345178
vn -0.694185 0.508969 0.508977
vn -0.631835 0.387552 0.671259
vn -0.577003 0.300634 0.759399
vn -0.342020 0.000000 0.939693
vn -0.342020 0.000000 0.939693
vn -0.342020 0.000000 0.939693
vn -0.342020 0.000000 0.939693
vn -0.342020 0.000000 0.939693
vn -0.342020 0.000000 0.939693
vn -0.342020 0.000000 0.939693
vn -0.342020 0.000000 0.939693
vn -0.342020 0.000000 0.939693
vn -0.631835 0.387552 0.671259
vn -0.723469 0.597866 0.345178
vn -0.707107 0.707107 0.000000
vn -0.707107 0.707107 0.000000
vn -0.707107 0.707107 0.000000
vn -0.707107 0.707107 0.000000
vn -0.707107 0.707107 0.000000
vn -0.707107 0.707107 0.000000
vn -0.707107 0.707107 0.000000
vn -0.707107 0.707107 0.000000
vn -0.707107 0.707107 0.000000
vn -0.707107 0.707107 0.000000
vn -0.707107 0.707107 0.000000
vn -0.707107 0.707107 0.000000
vn -0.707107 0.707107 0.000000
vn -0.707107 0.707107 0.000000
vn -0.707107 0.707107 0.000000
vn -0.707107 0.707107 0.000000
vn -0.707107 0.707107 0.000000
vn -0.707107 0.707107 0.000000
vn -0.707107 0.707107 0.000000
vn -0.707107 0.707107 0.000000
vn -0.707107 0.707107 0.000000
vn -0.524451 0.225666 -0.820991
vn -0.555606 0.269338 -0.786613
vn -0.634776 0.392588 -0.665533
vn -0.677390 0.472108 -0.564143
vn -0.688575 0.496123 -0.528891
vn -0.727293 0.620836 -0.292589
vn -0.726708 0.667173 -0.163632
vn -0.726711 0.667159 -0.163677
vn -0.726710 0.667163 -0.163665
vn -0.726709 0.667168 -0.163650
vn -0.688577 0.496126 -0.528887
vn -0.688576 0.496124 -0.528889
vn -0.634790 0.392610 -0.665507
vn -0.634784 0.392601 -0.665518
vn -0.524479 0.225704 -0.820962
vn -0.524467 0.225687 -0.820975
vn -0.726713 0.667148 -0.163714
vn -0.726712 0.667150 -0.163705
vn -0.726712 0.667153 -0.163697
vn -0.688581 0.496132 -0.528876
vn -0.688580 0.496130 -0.528879
vn -0.634802 0.392629 -0.665484
vn -0.634800 0.392626 -0.665488
vn -0.524508 0.225743 -0.820933
vn -0.524503 0.225735 -0.820939
vn -0.726715 0.667138 -0.163746
vn -0.726714 0.667142 -0.163734
vn -0.726713 0.667145 -0.163723
vn -0.688583 0.496137 -0.528869
vn -0.688582 0.496135 -0.528871
vn -0.634809 0.392642 -0.665470
vn -0.634806 0.392637 -0.665476
vn -0.524527 0.225769 -0.820914
vn -0.524520 0.225759 -0.820922
vn -0.524514 0.225750 -0.820928
vn -0.727274 0.620679 -0.292968
vn -0.726716 0.667128 -0.163778
vn -0.726715 0.667134 -0.163761
vn -0.688583 0.496140 -0.528865
vn -0.688583 0.496139 -0.528866
vn -0.634818 0.392659 -0.665452
vn -0.634812 0.392649 -0.665462
vn -0.524548 0.225798 -0.820892
vn -0.524536 0.225782 -0.820905
vn -0.688583 0.496142 -0.528863
vn -0.677330 0.471985 -0.564318
vn -0.634825 0.392671 -0.665438
vn -0.555676 0.269438 -0.786529
vn -0.524563 0.225819 -0.820877
vn -0.524489 0.225717 -0.820953
vn -0.524496 0.225727 -0.820945
vn -0.634797 0.392622 -0.665493
vn -0.688579 0.496128 -0.528882
vn -0.726711 0.667156 -0.163688
vn -0.688578 0.496127 -0.528884
vn -0.634794 0.392617 -0.665499
vn -0.688581 0.496134 -0.528874
vn -0.634804 0.392633 -0.665480
usemtl Opaque(24,77,198)
f 2/1/1 15/2/2 1/3/3
f 1/3/3 15/2/2 16/4/4
f 1/3/3 16/4/4 17/5/5
f 3/6/6 4/7/7 2/1/1
f 2/1/1 4/7/7 5/8/8
f 2/1/1 5/8/8 6/9/9
f 2/1/1 6/9/9 15/2/2
f 15/2/2 6/9/9 7/10/10
f 15/2/2 7/10/10 14/11/11
f 14/11/11 7/10/10 10/12/12
f 14/11/11 10/12/12 11/13/13
f 7/10/10 8/14/14 10/12/12
f 10/12/12 8/14/14 9/15/15
f 12/16/16 13/17/17 11/13/13
f 11/13/13 13/17/17 14/11/11
f 17/5/5 18/18/18 1/3/3
f 20/19/19 24/20/20 19/21/21
f 19/21/21 24/20/20 33/22/22
f 19/21/21 33/22/22 34/23/23
f 21/24/24 22/25/25 20/19/19
f 20/19/19 22/25/25 23/26/26
f 20/19/19 23/26/26 24/20/20
f 33/22/22 24/20/20 32/27/27
f 32/27/27 24/20/20 25/28/28
f 32/27/27 25/28/28 29/29/29
f 29/29/29 25/28/28 28/30/30
f 28/30/30 25/28/28 26/31/31
f 28/30/30 26/31/31 27/32/32
f 30/33/33 31/34/34 29/29/29
f 29/29/29 31/34/34 32/27/27
f 34/23/23 35/35/35 19/21/21
f 19/21/21 35/35/35 36/36/36
f 20/37/37 19/38/38 50/39/39
f 50/39/39 19/38/38 37/40/40
f 50/39/39 37/40/40 49/41/41
f 49/41/41 37/40/40 38/42/42
f 49/41/41 38/42/42 48/43/43
f 48/43/43 38/42/42 39/44/44
f 48/43/43 39/44/44 47/45/45
f 47/45/45 39/44/44 40/46/46
f 47/45/45 40/46/46 46/47/47
f 46/47/47 40/46/46 41/48/48
f 46/47/47 41/48/48 45/49/49
f 45/49/49 41/48/48 42/50/50
f 45/49/49 42/50/50 44/51/51
f 44/51/51 42/50/50 43/52/52
f 44/51/51 43/52/52 1/53/53
f 1/53/53 43/52/52 2/54/54
f 23/55/55 64/56/56 24/57/57
f 24/57/57 64/56/56 54/58/58
f 24/57/57 54/58/58 53/59/59
f 53/59/59 54/58/58 68/60/60
f 53/59/59 68/60/60 67/61/61
f 67/61/61 68/60/60 69/62/62
f 67/61/61 69/62/62 66/63/63
f 66/63/63 69/62/62 70/64/64
f 66/63/63 70/64/64 57/65/65
f 57/65/65 70/64/64 49/66/41
f 57/65/65 49/66/41 48/67/43
f 23/55/55 22/68/66 64/56/56
f 64/56/56 22/68/66 63/69/67
f 64/56/56 63/69/67 54/58/58
f 54/58/58 63/69/67 65/70/68
f 54/58/58 65/70/68 68/60/60
f 68/60/60 65/70/68 69/62/62
f 22/68/66 21/71/69 63/69/67
f 63/69/67 21/71/69 62/72/70
f 63/69/67 62/72/70 65/70/68
f 65/70/68 62/72/70 55/73/71
f 65/70/68 55/73/71 69/62/62
f 69/62/62 55/73/71 70/64/64
f 21/71/69 20/74/37 62/72/70
f 62/72/70 20/74/37 50/75/39
f 62/72/70 50/75/39 55/73/71
f 55/73/71 50/75/39 49/66/41
f 55/73/71 49/66/41 70/64/64
f 47/76/45 71/77/72 48/67/43
f 48/67/43 71/77/72 75/78/73
f 48/67/43 75/78/73 57/65/65
f 57/65/65 75/78/73 74/79/74
f 57/65/65 74/79/74 66/63/63
f 66/63/63 74/79/74 56/80/75
f 66/63/63 56/80/75 67/61/61
f 67/61/61 56/80/75 53/59/59
f 46/81/47 76/82/76 47/76/45
f 47/76/45 76/82/76 81/83/77
f 47/76/45 81/83/77 71/77/72
f 71/77/72 81/83/77 80/84/78
f 71/77/72 80/84/78 72/85/79
f 72/85/79 80/84/78 79/86/80
f 72/85/79 79/86/80 73/87/81
f 73/87/81 79/86/80 52/88/82
f 73/87/81 52/88/82 56/80/75
f 56/80/75 52/88/82 53/59/59
f 76/82/76 46/81/47 59/89/83
f 59/89/83 46/81/47 45/90/49
f 59/89/83 45/90/49 87/91/84
f 87/91/84 45/90/49 61/92/85
f 87/91/84 61/92/85 83/93/86
f 83/93/86 61/92/85 91/94/87
f 83/93/86 91/94/87 60/95/88
f 60/95/88 91/94/87 90/96/89
f 60/95/88 90/96/89 15/97/90
f 15/97/90 90/96/89 16/98/91
f 16/98/91 90/96/89 17/99/92
f 17/99/92 90/96/89 89/100/93
f 17/99/92 89/100/93 18/101/94
f 18/101/94 89/100/93 88/102/95
f 18/101/94 88/102/95 1/103/53
f 1/103/53 88/102/95 44/104/51
f 44/104/51 88/102/95 92/105/96
f 44/104/51 92/105/96 61/92/85
f 61/92/85 92/105/96 91/94/87
f 45/90/49 44/104/51 61/92/85
f 15/97/90 51/106/97 60/95/88
f 60/95/88 51/106/97 84/107/98
f 60/95/88 84/107/98 83/93/86
f 83/93/86 84/107/98 86/108/99
f 83/93/86 86/108/99 87/91/84
f 87/91/84 86/108/99 59/89/83
f 52/88/82 58/109/100 51/106/97
f 51/106/97 58/109/100 85/110/101
f 51/106/97 85/110/101 84/107/98
f 84/107/98 85/110/101 86/108/99
f 52/88/82 79/86/80 78/111/102
f 78/111/102 79/86/80 80/84/78
f 78/111/102 80/84/78 77/112/103
f 77/112/103 80/84/78 81/83/77
f 77/112/103 81/83/77 76/82/76
f 52/88/82 78/111/102 58/109/100
f 58/109/100 78/111/102 77/112/103
f 58/109/100 77/112/103 82/113/104
f 82/113/104 77/112/103 76/82/76
f 82/113/104 76/82/76 59/89/83
f 74/79/74 75/78/73 72/85/79
f 72/85/79 75/78/73 71/77/72
f 56/80/75 74/79/74 73/87/81
f 73/87/81 74/79/74 72/85/79
f 85/110/101 58/109/100 82/113/104
f 85/110/101 82/113/104 86/108/99
f 86/108/99 82/113/104 59/89/83
f 91/94/87 92/105/96 89/100/93
f 89/100/93 92/105/96 88/102/95
f 89/100/93 90/96/89 91/94/87
f 25/114/105 24/115/57 99/116/106
f 99/116/106 24/115/57 53/117/59
f 99/116/106 53/117/59 98/118/107
f 98/118/107 53/117/59 97/119/108
f 97/119/108 53/117/59 52/120/82
f 97/119/108 52/120/82 96/121/109
f 96/121/109 52/120/82 95/122/110
f 95/122/110 52/120/82 51/123/97
f 95/122/110 51/123/97 94/124/111
f 94/124/111 51/123/97 93/125/112
f 93/125/112 51/123/97 15/126/90
f 93/125/112 15/126/90 14/127/113
f 106/128/114 28/129/115 107/130/116
f 107/130/116 28/129/115 27/131/117
f 107/130/116 27/131/117 109/132/118
f 109/132/118 27/131/117 26/133/119
f 109/132/118 26/133/119 108/134/120
f 108/134/120 26/133/119 99/135/121
f 108/134/120 99/135/121 98/136/122
f 26/133/119 25/137/123 99/135/121
f 98/136/122 97/138/124 108/134/120
f 108/134/120 97/138/124 96/139/125
f 108/134/120 96/139/125 95/140/126
f 95/140/126 94/141/127 108/134/120
f 108/134/120 94/141/127 93/142/128
f 108/134/120 93/142/128 14/143/129
f 14/143/129 13/144/130 108/134/120
f 108/134/120 13/144/130 109/132/118
f 13/144/130 12/145/131 109/132/118
f 109/132/118 12/145/131 107/130/116
f 11/146/132 100/147/133 12/145/131
f 12/145/131 100/147/133 107/130/116
f 100/147/133 101/148/134 107/130/116
f 107/130/116 101/148/134 102/149/135
f 107/130/116 102/149/135 103/150/136
f 103/150/136 104/151/137 107/130/116
f 107/130/116 104/151/137 105/152/138
f 107/130/116 105/152/138 106/128/114
f 29/153/139 28/154/140 116/155/141
f 116/155/141 28/154/140 106/156/142
f 116/155/141 106/156/142 115/157/143
f 115/157/143 106/156/142 105/158/144
f 115/157/143 105/158/144 114/159/145
f 114/159/145 105/158/144 104/160/146
f 114/159/145 104/160/146 113/161/147
f 113/161/147 104/160/146 103/162/148
f 113/161/147 103/162/148 112/163/149
f 112/163/149 103/162/148 102/164/150
f 112/163/149 102/164/150 111/165/151
f 111/165/151 102/164/150 101/166/152
f 111/165/151 101/166/152 110/167/153
f 110/167/153 101/166/152 100/168/154
f 110/167/153 100/168/154 10/169/155
f 10/169/155 100/168/154 11/170/156
f 123/171/157 32/172/158 125/173/159
f 125/173/159 32/172/158 31/174/160
f 125/173/159 31/174/160 126/175/161
f 126/175/161 31/174/160 30/176/162
f 126/175/161 30/176/162 124/177/163
f 124/177/163 30/176/162 116/178/164
f 124/177/163 116/178/164 115/179/165
f 30/176/162 29/180/166 116/178/164
f 115/179/165 114/181/167 124/177/163
f 124/177/163 114/181/167 113/182/168
f 124/177/163 113/182/168 112/183/169
f 112/183/169 111/184/170 124/177/163
f 124/177/163 111/184/170 110/185/171
f 124/177/163 110/185/171 10/186/172
f 10/186/172 9/187/173 124/177/163
f 124/177/163 9/187/173 126/175/161
f 9/187/173 8/188/174 126/175/161
f 126/175/161 8/188/174 125/173/159
f 7/189/175 117/190/176 8/188/174
f 8/188/174 117/190/176 125/173/159
f 117/190/176 118/191/177 125/173/159
f 125/173/159 118/191/177 119/192/178
f 125/173/159 119/192/178 120/193/179
f 120/193/179 121/194/180 125/173/159
f 125/173/159 121/194/180 122/195/181
f 125/173/159 122/195/181 123/171/157
f 32/196/182 123/197/183 33/198/184
f 33/198/184 123/197/183 129/199/185
f 129/199/185 123/197/183 122/200/186
f 129/199/185 122/200/186 121/201/187
f 129/199/185 121/201/187 128/202/188
f 128/202/188 121/201/187 120/203/189
f 128/202/188 120/203/189 119/204/190
f 128/202/188 119/204/190 127/205/191
f 127/205/191 119/204/190 118/206/192
f 127/205/191 118/206/192 117/207/193
f 7/208/194 6/209/195 117/207/193
f 117/207/193 6/209/195 127/205/191
f 37/210/40 19/211/38 141/212/196
f 141/212/196 19/211/38 36/213/197
f 141/212/196 36/213/197 140/214/198
f 140/214/198 36/213/197 35/215/199
f 140/214/198 35/215/199 139/216/200
f 139/216/200 35/215/199 34/217/201
f 139/216/200 34/217/201 138/218/202
f 138/218/202 34/217/201 33/219/184
f 138/218/202 33/219/184 129/220/185
f 128/221/188 142/222/203 129/220/185
f 129/220/185 142/222/203 147/223/204
f 129/220/185 147/223/204 131/224/205
f 131/224/205 147/223/204 146/225/206
f 131/224/205 146/225/206 179/226/207
f 179/226/207 146/225/206 145/227/208
f 179/226/207 145/227/208 180/228/209
f 180/228/209 145/227/208 130/229/210
f 180/228/209 130/229/210 181/230/211
f 181/230/211 130/229/210 37/210/40
f 181/230/211 37/210/40 141/212/196
f 127/231/191 148/232/212 128/221/188
f 128/221/188 148/232/212 155/233/213
f 128/221/188 155/233/213 175/234/214
f 175/234/214 155/233/213 154/235/215
f 175/234/214 154/235/215 174/236/216
f 174/236/216 154/235/215 153/237/217
f 174/236/216 153/237/217 173/238/218
f 173/238/218 153/237/217 152/239/219
f 173/238/218 152/239/219 172/240/220
f 172/240/220 152/239/219 40/241/46
f 172/240/220 40/241/46 39/242/44
f 6/243/195 156/244/221 127/231/191
f 127/231/191 156/244/221 161/245/222
f 127/231/191 161/245/222 135/246/223
f 135/246/223 161/245/222 160/247/224
f 135/246/223 160/247/224 169/248/225
f 169/248/225 160/247/224 159/249/226
f 169/248/225 159/249/226 170/250/227
f 170/250/227 159/249/226 134/251/228
f 170/250/227 134/251/228 171/252/229
f 171/252/229 134/251/228 41/253/48
f 171/252/229 41/253/48 151/254/230
f 151/254/230 41/253/48 40/241/46
f 151/254/230 40/241/46 152/239/219
f 5/255/231 165/256/232 6/243/195
f 6/243/195 165/256/232 137/257/233
f 6/243/195 137/257/233 156/244/221
f 156/244/221 137/257/233 168/258/234
f 156/244/221 168/258/234 157/259/235
f 157/259/235 168/258/234 167/260/236
f 157/259/235 167/260/236 158/261/237
f 158/261/237 167/260/236 166/262/238
f 158/261/237 166/262/238 136/263/239
f 136/263/239 166/262/238 43/264/52
f 136/263/239 43/264/52 42/265/50
f 165/256/232 5/255/231 164/266/240
f 164/266/240 5/255/231 4/267/241
f 164/266/240 4/267/241 163/268/242
f 163/268/242 4/267/241 3/269/243
f 163/268/242 3/269/243 162/270/244
f 162/270/244 3/269/243 2/271/54
f 162/270/244 2/271/54 43/264/52
f 136/263/239 42/265/50 134/251/228
f 134/251/228 42/265/50 41/253/48
f 38/272/42 132/273/245 39/242/44
f 39/242/44 132/273/245 176/274/246
f 39/242/44 176/274/246 172/240/220
f 172/240/220 176/274/246 177/275/247
f 172/240/220 177/275/247 173/238/218
f 173/238/218 177/275/247 178/276/248
f 173/238/218 178/276/248 174/236/216
f 174/236/216 178/276/248 133/277/249
f 174/236/216 133/277/249 175/234/214
f 175/234/214 133/277/249 128/221/188
f 132/273/245 38/272/42 130/229/210
f 130/229/210 38/272/42 37/210/40
f 138/218/202 129/220/185 131/224/205
f 142/222/203 128/221/188 133/277/249
f 148/232/212 127/231/191 135/246/223
f 131/224/205 179/226/207 138/218/202
f 138/218/202 179/226/207 139/216/200
f 181/230/211 141/212/196 140/214/198
f 179/226/207 180/228/209 139/216/200
f 139/216/200 180/228/209 140/214/198
f 180/228/209 181/230/211 140/214/198
f 146/225/206 147/223/204 143/278/250
f 143/278/250 147/223/204 142/222/203
f 143/278/250 142/222/203 178/276/248
f 178/276/248 142/222/203 133/277/249
f 145/227/208 146/225/206 144/279/251
f 144/279/251 146/225/206 143/278/250
f 144/279/251 143/278/250 177/275/247
f 177/275/247 143/278/250 178/276/248
f 130/229/210 145/227/208 132/273/245
f 132/273/245 145/227/208 144/279/251
f 132/273/245 144/279/251 176/274/246
f 176/274/246 144/279/251 177/275/247
f 154/235/215 155/233/213 149/280/252
f 149/280/252 155/233/213 148/232/212
f 149/280/252 148/232/212 169/248/225
f 169/248/225 148/232/212 135/246/223
f 153/237/217 154/235/215 150/281/253
f 150/281/253 154/235/215 149/280/252
f 150/281/253 149/280/252 170/250/227
f 170/250/227 149/280/252 169/248/225
f 152/239/219 153/237/217 151/254/230
f 151/254/230 153/237/217 150/281/253
f 151/254/230 150/281/253 171/252/229
f 171/252/229 150/281/253 170/250/227
f 160/247/224 161/245/222 157/259/235
f 157/259/235 161/245/222 156/244/221
f 159/249/226 160/247/224 158/261/237
f 158/261/237 160/247/224 157/259/235
f 134/251/228 159/249/226 136/263/239
f 136/263/239 159/249/226 158/261/237
f 162/270/244 43/264/52 166/262/238
f 166/262/238 167/260/236 162/270/244
f 162/270/244 167/260/236 163/268/242
f 137/257/233 165/256/232 164/266/240
f 167/260/236 168/258/234 163/268/242
f 163/268/242 168/258/234 164/266/240
f 168/258/234 137/257/233 164/266/240
# 181 vertices
# 281 texture params
# 253 normals
# 358 facets

# 1 groups
