# WaveFront *.obj file (generated by Autodesk ATF)

mtllib low_freq_visual.mtl

g low_freq

v 41.300000 -20.306309 -18.556309
v 41.300000 20.306309 -18.556309
v 41.300000 20.419850 -18.537214
v 41.300000 20.529957 -18.475521
v 41.300000 20.622325 -18.355124
v 41.300000 20.656309 -18.206309
v 41.300000 20.656309 18.206309
v 41.300000 20.609418 18.381309
v 41.300000 20.481309 18.509418
v 41.300000 20.306309 18.556309
v 41.300000 -20.306309 18.556309
v 41.300000 -20.481309 18.509418
v 41.300000 -20.609418 18.381309
v 41.300000 -20.656309 18.206309
v 41.300000 -20.656309 -18.206309
v 41.300000 -20.637214 -18.319850
v 41.300000 -20.575521 -18.429957
v 41.300000 -20.455124 -18.522325
v 1.300000 5.750476 -3.997500
v 1.300000 -5.750476 -3.997500
v 1.300000 -5.897998 -3.963877
v 1.300000 -6.017373 -3.872376
v 1.300000 -6.078567 -3.763160
v 1.300000 -6.097500 -3.650476
v 1.300000 -6.097500 3.650000
v 1.300000 -6.050944 3.823750
v 1.300000 -5.923750 3.950944
v 1.300000 -5.750000 3.997500
v 1.300000 5.750000 3.997500
v 1.300000 5.923750 3.950944
v 1.300000 6.050944 3.823750
v 1.300000 6.097500 3.650000
v 1.300000 6.097500 -3.650476
v 1.300000 6.063877 -3.797998
v 1.300000 5.972376 -3.917373
v 1.300000 5.863160 -3.978567
v 6.300000 7.569955 -5.817351
v 11.300000 9.389435 -7.637202
v 16.300000 11.208914 -9.457054
v 21.300000 13.028393 -11.276905
v 26.300000 14.847872 -13.096756
v 31.300000 16.667351 -14.916607
v 36.300000 18.486830 -16.736458
v 36.300000 -18.486830 -16.736458
v 31.300000 -16.667351 -14.916607
v 26.300000 -14.847872 -13.096756
v 21.300000 -13.028393 -11.276905
v 16.300000 -11.208914 -9.457054
v 11.300000 -9.389435 -7.637202
v 6.300000 -7.569955 -5.817351
v 36.300000 -18.836458 -16.386830
v 31.300000 -17.016607 -14.567351
v 26.300000 -15.196756 -12.747872
v 21.300000 -13.376905 -10.928393
v 16.300000 -11.557054 -9.108914
v 11.300000 -9.737202 -7.289435
v 6.300000 -7.917351 -5.469955
v 3.118182 -6.710689 -4.489294
v 3.118182 -6.492645 -4.649412
v 8.572727 -8.695918 -6.474376
v 8.572727 -8.477618 -6.634691
v 14.027273 -10.681149 -8.459460
v 14.027273 -10.462590 -8.619971
v 19.481818 -12.666382 -10.444545
v 17.663636 -11.785906 -9.943491
v 23.118182 -13.989871 -11.767936
v 23.118182 -13.770879 -11.928771
v 28.572727 -15.975104 -13.753021
v 28.572727 -15.755852 -13.914051
v 34.027273 -17.960335 -15.738105
v 34.027273 -17.740825 -15.899330
v 39.481818 -19.945564 -17.723187
v 37.663636 -19.064140 -17.222850
v 3.118182 -6.666569 -4.548227
v 6.754545 -7.815960 -5.972931
v 6.754545 -7.990018 -5.871661
v 6.754545 -8.034174 -5.812681
v 4.936364 -7.372431 -5.150988
v 4.936364 -7.328293 -5.209944
v 4.936364 -7.154303 -5.311172
v 12.209091 -9.800933 -7.958211
v 12.209091 -9.975194 -7.856815
v 12.209091 -10.019405 -7.797765
v 10.390909 -9.357661 -7.136070
v 10.390909 -9.313468 -7.195096
v 10.390909 -9.139275 -7.296451
v 17.663636 -11.960372 -9.841970
v 17.663636 -12.004638 -9.782850
v 15.845455 -11.342893 -9.121155
v 15.845455 -11.298646 -9.180252
v 15.845455 -11.124248 -9.281731
v 23.118182 -13.945551 -11.827127
v 21.300000 -13.328126 -11.106241
v 21.300000 -13.283825 -11.165408
v 21.300000 -13.109221 -11.267011
v 26.754545 -15.094195 -13.252291
v 26.754545 -15.269004 -13.150565
v 26.754545 -15.313359 -13.091326
v 24.936364 -14.651615 -12.429631
v 24.936364 -14.607278 -12.488846
v 24.936364 -14.432537 -12.590531
v 32.209091 -17.079168 -15.237570
v 32.209091 -17.254182 -15.135720
v 32.209091 -17.298591 -15.076411
v 30.390909 -16.636848 -14.414716
v 30.390909 -16.592456 -14.474002
v 30.390909 -16.417510 -14.575811
v 37.663636 -19.239357 -17.120873
v 37.663636 -19.283821 -17.061494
v 35.845455 -18.622078 -16.399800
v 35.845455 -18.577632 -16.459156
v 35.845455 -18.402483 -16.561090
v 39.481818 -19.901081 -17.782590
v 39.481818 -19.725797 -17.884609
v 19.481818 -12.622099 -10.503689
v 19.481818 -12.447564 -10.605251
v 8.572727 -8.651743 -6.533378
v 14.027273 -10.636920 -8.518533
v 28.572727 -15.930730 -13.812283
v 34.027273 -17.915907 -15.797438
v 36.300000 -18.836458 16.386771
v 31.300000 -17.016607 14.567232
v 26.300000 -15.196756 12.747693
v 21.300000 -13.376905 10.928155
v 16.300000 -11.557054 9.108616
v 11.300000 -9.737202 7.289077
v 6.300000 -7.917351 5.469539
v 36.300000 -18.486771 16.736458
v 31.300000 -16.667232 14.916607
v 26.300000 -14.847693 13.096756
v 21.300000 -13.028155 11.276905
v 16.300000 -11.208616 9.457054
v 11.300000 -9.389077 7.637202
v 6.300000 -7.569539 5.817351
v 21.296149 -13.351017 11.055126
v 21.296149 -13.155126 11.251017
v 21.284477 -13.269109 11.169109
v 36.300000 18.486771 16.736458
v 31.300000 16.667232 14.916607
v 26.300000 14.847693 13.096756
v 21.300000 13.028155 11.276905
v 16.300000 11.208616 9.457054
v 11.300000 9.389077 7.637202
v 6.300000 7.569539 5.817351
v 36.300000 18.836458 16.386771
v 31.300000 17.016607 14.567232
v 26.300000 15.196756 12.747693
v 21.300000 13.376905 10.928155
v 16.300000 11.557054 9.108616
v 11.300000 9.737202 7.289077
v 6.300000 7.917351 5.469539
v 21.296149 13.155126 11.251017
v 21.296149 13.351017 11.055126
v 21.284477 13.269109 11.169109
v 36.300000 18.836458 -16.386830
v 31.300000 17.016607 -14.567351
v 26.300000 15.196756 -12.747872
v 21.300000 13.376905 -10.928393
v 16.300000 11.557054 -9.108914
v 11.300000 9.737202 -7.289435
v 6.300000 7.917351 -5.469955
v 3.118182 6.589294 -4.610689
v 3.118182 6.749412 -4.392645
v 8.572727 8.574376 -6.595918
v 8.572727 8.734691 -6.377618
v 14.027273 10.559460 -8.581149
v 14.027273 10.719971 -8.362590
v 19.481818 12.544545 -10.566382
v 17.663636 12.043491 -9.685906
v 23.118182 13.867936 -11.889871
v 23.118182 14.028771 -11.670879
v 28.572727 15.853021 -13.875104
v 28.572727 16.014051 -13.655852
v 34.027273 17.838105 -15.860335
v 34.027273 17.999330 -15.640825
v 39.481818 19.823187 -17.845564
v 37.663636 19.322850 -16.964140
v 3.118182 6.648227 -4.566569
v 6.754545 8.072931 -5.715960
v 6.754545 7.971661 -5.890018
v 6.754545 7.912681 -5.934174
v 4.936364 7.250988 -5.272431
v 4.936364 7.309944 -5.228293
v 4.936364 7.411172 -5.054303
v 12.209091 10.058211 -7.700933
v 12.209091 9.956815 -7.875194
v 12.209091 9.897765 -7.919405
v 10.390909 9.236070 -7.257661
v 10.390909 9.295096 -7.213468
v 10.390909 9.396451 -7.039275
v 17.663636 11.941970 -9.860372
v 17.663636 11.882850 -9.904638
v 15.845455 11.221155 -9.242893
v 15.845455 11.280252 -9.198646
v 15.845455 11.381731 -9.024248
v 23.118182 13.927127 -11.845551
v 21.300000 13.206241 -11.228126
v 21.300000 13.265408 -11.183825
v 21.300000 13.367011 -11.009221
v 26.754545 15.352291 -12.994195
v 26.754545 15.250565 -13.169004
v 26.754545 15.191326 -13.213359
v 24.936364 14.529631 -12.551615
v 24.936364 14.588846 -12.507278
v 24.936364 14.690531 -12.332537
v 32.209091 17.337570 -14.979168
v 32.209091 17.235720 -15.154182
v 32.209091 17.176411 -15.198591
v 30.390909 16.514716 -14.536848
v 30.390909 16.574002 -14.492456
v 30.390909 16.675811 -14.317510
v 37.663636 19.220873 -17.139357
v 37.663636 19.161494 -17.183821
v 35.845455 18.499800 -16.522078
v 35.845455 18.559156 -16.477632
v 35.845455 18.661090 -16.302483
v 39.481818 19.882590 -17.801081
v 39.481818 19.984609 -17.625797
v 19.481818 12.603689 -10.522099
v 19.481818 12.705251 -10.347564
v 8.572727 8.633378 -6.551743
v 14.027273 10.618533 -8.536920
v 28.572727 15.912283 -13.830730
v 34.027273 17.897438 -15.815907
vt -18.556309 -20.306309 0.000000
vt -18.206309 20.656309 0.000000
vt -18.556309 20.306309 0.000000
vt -18.319850 20.637214 0.000000
vt -18.429957 20.575521 0.000000
vt -18.206309 -20.656309 0.000000
vt -18.537214 -20.419850 0.000000
vt -18.355124 -20.622325 0.000000
vt -18.475521 -20.529957 0.000000
vt 18.206309 -20.656309 0.000000
vt 18.206309 20.656309 0.000000
vt 18.556309 -20.306309 0.000000
vt 18.556309 20.306309 0.000000
vt 18.381309 -20.609418 0.000000
vt 18.509418 -20.481309 0.000000
vt 18.509418 20.481309 0.000000
vt 18.381309 20.609418 0.000000
vt -18.522325 20.455124 0.000000
vt 3.997443 5.750476 0.000000
vt 3.650420 6.097500 0.000000
vt 3.997443 -5.750476 0.000000
vt 3.650420 -6.097500 0.000000
vt 3.797941 -6.063877 0.000000
vt 3.963821 5.897998 0.000000
vt 3.872319 6.017373 0.000000
vt 3.763103 6.078567 0.000000
vt -3.650057 -6.097500 0.000000
vt -3.650057 6.097500 0.000000
vt -3.997557 -5.750000 0.000000
vt -3.997557 5.750000 0.000000
vt -3.823807 6.050944 0.000000
vt -3.951000 5.923750 0.000000
vt -3.951000 -5.923750 0.000000
vt -3.823807 -6.050944 0.000000
vt 3.917317 -5.972376 0.000000
vt 3.978511 -5.863160 0.000000
vt -11.500952 -0.000000 0.000000
vt 0.000000 0.000000 0.000000
vt -13.320432 5.320889 0.000000
vt 1.819479 5.320889 0.000000
vt -15.139911 10.641778 0.000000
vt 3.638958 10.641778 0.000000
vt -16.959390 15.962667 0.000000
vt 5.458437 15.962667 0.000000
vt -18.778869 21.283555 0.000000
vt 7.277917 21.283555 0.000000
vt -20.598348 26.604444 0.000000
vt 9.097396 26.604444 0.000000
vt -22.417827 31.925333 0.000000
vt 10.916875 31.925333 0.000000
vt -24.237306 37.246222 0.000000
vt 12.736354 37.246222 0.000000
vt -26.056786 42.567111 0.000000
vt 14.555833 42.567111 0.000000
vt -0.545692 5.623423 0.000000
vt -0.545692 0.000000 0.000000
vt -0.359866 2.044881 0.000000
vt -0.430966 0.000000 0.000000
vt -0.304817 0.000000 0.000000
vt -0.285839 2.044881 0.000000
vt -0.152756 0.000000 0.000000
vt -0.081430 2.044881 0.000000
vt -0.000000 0.000000 0.000000
vt -0.000000 5.623423 0.000000
vt -0.000000 11.246846 0.000000
vt -0.081430 6.134643 0.000000
vt -0.081430 4.089762 0.000000
vt -0.285839 4.089762 0.000000
vt -0.359866 4.089762 0.000000
vt -0.000000 16.870270 0.000000
vt -0.081430 12.269287 0.000000
vt -0.081430 10.224406 0.000000
vt -0.081430 8.179525 0.000000
vt -0.285839 10.224406 0.000000
vt -0.285839 8.179525 0.000000
vt -0.359866 10.224406 0.000000
vt -0.359866 8.179525 0.000000
vt -0.545692 11.246846 0.000000
vt -0.000000 22.493693 0.000000
vt -0.081430 18.403930 0.000000
vt -0.081430 16.359049 0.000000
vt -0.081430 14.314168 0.000000
vt -0.285839 16.359049 0.000000
vt -0.285839 14.314168 0.000000
vt -0.359866 16.359049 0.000000
vt -0.359866 14.314168 0.000000
vt -0.545692 16.870270 0.000000
vt -0.000000 28.117116 0.000000
vt -0.081430 24.538574 0.000000
vt -0.081430 22.493693 0.000000
vt -0.081430 20.448812 0.000000
vt -0.285839 22.493693 0.000000
vt -0.285839 20.448812 0.000000
vt -0.359866 22.493693 0.000000
vt -0.359866 20.448812 0.000000
vt -0.545692 22.493693 0.000000
vt -0.000000 33.740539 0.000000
vt -0.081430 28.628336 0.000000
vt -0.081430 26.583455 0.000000
vt -0.285839 26.583455 0.000000
vt -0.285839 24.538574 0.000000
vt -0.359866 26.583455 0.000000
vt -0.359866 24.538574 0.000000
vt -0.545692 28.117116 0.000000
vt -0.000000 39.363962 0.000000
vt -0.081430 34.762980 0.000000
vt -0.081430 32.718099 0.000000
vt -0.081430 30.673217 0.000000
vt -0.285839 32.718099 0.000000
vt -0.285839 30.673217 0.000000
vt -0.359866 32.718099 0.000000
vt -0.359866 30.673217 0.000000
vt -0.545692 33.740539 0.000000
vt -0.000000 44.987385 0.000000
vt -0.081430 40.897623 0.000000
vt -0.081430 38.852742 0.000000
vt -0.081430 36.807861 0.000000
vt -0.285839 38.852742 0.000000
vt -0.285839 36.807861 0.000000
vt -0.359866 38.852742 0.000000
vt -0.359866 36.807861 0.000000
vt -0.545692 39.363962 0.000000
vt -0.081430 42.942504 0.000000
vt -0.152867 44.987385 0.000000
vt -0.285839 42.942504 0.000000
vt -0.304933 44.987385 0.000000
vt -0.359866 42.942504 0.000000
vt -0.431010 44.987385 0.000000
vt -0.545692 44.987385 0.000000
vt -0.359866 40.897623 0.000000
vt -0.285839 40.897623 0.000000
vt -0.359866 6.134643 0.000000
vt -0.359866 12.269287 0.000000
vt -0.359866 18.403930 0.000000
vt -0.285839 18.403930 0.000000
vt -0.359866 28.628336 0.000000
vt -0.359866 34.762980 0.000000
vt -0.285839 6.134643 0.000000
vt -0.285839 12.269287 0.000000
vt -0.285839 28.628336 0.000000
vt -0.285839 34.762980 0.000000
vt -0.000000 0.000000 0.000000
vt 1.819479 5.320889 0.000000
vt -7.300476 -0.000000 0.000000
vt -9.120015 5.320889 0.000000
vt 3.638958 10.641778 0.000000
vt -10.939554 10.641778 0.000000
vt 5.458437 15.962667 0.000000
vt -12.759092 15.962667 0.000000
vt 7.277917 21.283555 0.000000
vt -14.578631 21.283555 0.000000
vt 9.097396 26.604444 0.000000
vt -16.398170 26.604444 0.000000
vt 10.916875 31.925333 0.000000
vt -18.217708 31.925333 0.000000
vt 12.736354 37.246222 0.000000
vt -20.037247 37.246222 0.000000
vt 14.555833 42.567111 0.000000
vt -21.856786 42.567111 0.000000
vt -39.250520 -0.288926 0.000000
vt -44.873916 -0.288926 0.000000
vt -22.351049 -0.433382 0.000000
vt -44.832759 -0.486012 0.000000
vt -22.351049 -0.577839 0.000000
vt -44.832759 -0.669666 0.000000
vt -22.351049 -0.722295 0.000000
vt -39.250520 -0.866752 0.000000
vt -33.627124 -0.866752 0.000000
vt -44.873916 -0.866752 0.000000
vt -28.003728 -0.866752 0.000000
vt -22.380333 -0.866752 0.000000
vt -16.756937 -0.866752 0.000000
vt -11.133541 -0.866752 0.000000
vt -5.510146 -0.866752 0.000000
vt 0.113250 -0.866752 0.000000
vt 0.154702 -0.669666 0.000000
vt 0.154702 -0.486012 0.000000
vt 0.113250 -0.288926 0.000000
vt -5.510146 -0.288926 0.000000
vt -11.133541 -0.288926 0.000000
vt -16.756937 -0.288926 0.000000
vt -22.380333 -0.288926 0.000000
vt -28.003728 -0.288926 0.000000
vt -33.627124 -0.288926 0.000000
vt -11.500000 -0.000000 0.000000
vt -0.000000 0.000000 0.000000
vt -13.319539 5.320889 0.000000
vt 1.819539 5.320889 0.000000
vt -15.139077 10.641778 0.000000
vt 3.639077 10.641778 0.000000
vt -16.958616 15.962667 0.000000
vt 5.458616 15.962667 0.000000
vt -18.778155 21.283555 0.000000
vt 7.278155 21.283555 0.000000
vt -20.597693 26.604444 0.000000
vt 9.097693 26.604444 0.000000
vt -22.417232 31.925333 0.000000
vt 10.917232 31.925333 0.000000
vt -24.236771 37.246222 0.000000
vt 12.736771 37.246222 0.000000
vt -26.056309 42.567111 0.000000
vt 14.556309 42.567111 0.000000
vt -39.250520 -0.288926 0.000000
vt -44.873916 -0.288926 0.000000
vt -22.351049 -0.433382 0.000000
vt -44.832759 -0.486012 0.000000
vt -22.351049 -0.577839 0.000000
vt -44.832759 -0.669666 0.000000
vt -22.351049 -0.722295 0.000000
vt -39.250520 -0.866752 0.000000
vt -33.627124 -0.866752 0.000000
vt -44.873916 -0.866752 0.000000
vt -28.003728 -0.866752 0.000000
vt -22.380333 -0.866752 0.000000
vt -16.756937 -0.866752 0.000000
vt -11.133541 -0.866752 0.000000
vt -5.510146 -0.866752 0.000000
vt 0.113250 -0.866752 0.000000
vt 0.154702 -0.669666 0.000000
vt 0.154702 -0.486012 0.000000
vt 0.113250 -0.288926 0.000000
vt -5.510146 -0.288926 0.000000
vt -11.133541 -0.288926 0.000000
vt -16.756937 -0.288926 0.000000
vt -22.380333 -0.288926 0.000000
vt -28.003728 -0.288926 0.000000
vt -33.627124 -0.288926 0.000000
vt -7.300476 -0.000000 0.000000
vt -0.000000 0.000000 0.000000
vt -9.119955 5.320889 0.000000
vt 1.819539 5.320889 0.000000
vt -10.939435 10.641778 0.000000
vt 3.639077 10.641778 0.000000
vt -12.758914 15.962667 0.000000
vt 5.458616 15.962667 0.000000
vt -14.578393 21.283555 0.000000
vt 7.278155 21.283555 0.000000
vt -16.397872 26.604444 0.000000
vt 9.097693 26.604444 0.000000
vt -18.217351 31.925333 0.000000
vt 10.917232 31.925333 0.000000
vt -20.036830 37.246222 0.000000
vt 12.736771 37.246222 0.000000
vt -21.856309 42.567111 0.000000
vt 14.556309 42.567111 0.000000
vt -0.545692 5.623423 0.000000
vt -0.545692 0.000000 0.000000
vt -0.359866 2.044881 0.000000
vt -0.430966 0.000000 0.000000
vt -0.304817 0.000000 0.000000
vt -0.285839 2.044881 0.000000
vt -0.152756 0.000000 0.000000
vt -0.081430 2.044881 0.000000
vt -0.000000 0.000000 0.000000
vt -0.000000 5.623423 0.000000
vt -0.000000 11.246846 0.000000
vt -0.081430 6.134643 0.000000
vt -0.081430 4.089762 0.000000
vt -0.285839 4.089762 0.000000
vt -0.359866 4.089762 0.000000
vt -0.000000 16.870270 0.000000
vt -0.081430 12.269287 0.000000
vt -0.081430 10.224406 0.000000
vt -0.081430 8.179525 0.000000
vt -0.285839 10.224406 0.000000
vt -0.285839 8.179525 0.000000
vt -0.359866 10.224406 0.000000
vt -0.359866 8.179525 0.000000
vt -0.545692 11.246846 0.000000
vt -0.000000 22.493693 0.000000
vt -0.081430 18.403930 0.000000
vt -0.081430 16.359049 0.000000
vt -0.081430 14.314168 0.000000
vt -0.285839 16.359049 0.000000
vt -0.285839 14.314168 0.000000
vt -0.359866 16.359049 0.000000
vt -0.359866 14.314168 0.000000
vt -0.545692 16.870270 0.000000
vt -0.000000 28.117116 0.000000
vt -0.081430 24.538574 0.000000
vt -0.081430 22.493693 0.000000
vt -0.081430 20.448812 0.000000
vt -0.285839 22.493693 0.000000
vt -0.285839 20.448812 0.000000
vt -0.359866 22.493693 0.000000
vt -0.359866 20.448812 0.000000
vt -0.545692 22.493693 0.000000
vt -0.000000 33.740539 0.000000
vt -0.081430 28.628336 0.000000
vt -0.081430 26.583455 0.000000
vt -0.285839 26.583455 0.000000
vt -0.285839 24.538574 0.000000
vt -0.359866 26.583455 0.000000
vt -0.359866 24.538574 0.000000
vt -0.545692 28.117116 0.000000
vt -0.000000 39.363962 0.000000
vt -0.081430 34.762980 0.000000
vt -0.081430 32.718099 0.000000
vt -0.081430 30.673217 0.000000
vt -0.285839 32.718099 0.000000
vt -0.285839 30.673217 0.000000
vt -0.359866 32.718099 0.000000
vt -0.359866 30.673217 0.000000
vt -0.545692 33.740539 0.000000
vt -0.000000 44.987385 0.000000
vt -0.081430 40.897623 0.000000
vt -0.081430 38.852742 0.000000
vt -0.081430 36.807861 0.000000
vt -0.285839 38.852742 0.000000
vt -0.285839 36.807861 0.000000
vt -0.359866 38.852742 0.000000
vt -0.359866 36.807861 0.000000
vt -0.545692 39.363962 0.000000
vt -0.081430 42.942504 0.000000
vt -0.152867 44.987385 0.000000
vt -0.285839 42.942504 0.000000
vt -0.304933 44.987385 0.000000
vt -0.359866 42.942504 0.000000
vt -0.431010 44.987385 0.000000
vt -0.545692 44.987385 0.000000
vt -0.359866 40.897623 0.000000
vt -0.285839 40.897623 0.000000
vt -0.359866 6.134643 0.000000
vt -0.359866 12.269287 0.000000
vt -0.359866 18.403930 0.000000
vt -0.285839 18.403930 0.000000
vt -0.359866 28.628336 0.000000
vt -0.359866 34.762980 0.000000
vt -0.285839 6.134643 0.000000
vt -0.285839 12.269287 0.000000
vt -0.285839 28.628336 0.000000
vt -0.285839 34.762980 0.000000
vn 1.000000 -0.000000 0.000000
vn 1.000000 -0.000000 0.000000
vn 1.000000 -0.000000 0.000000
vn 1.000000 -0.000000 0.000000
vn 1.000000 -0.000000 0.000000
vn 1.000000 -0.000000 0.000000
vn 1.000000 -0.000000 0.000000
vn 1.000000 -0.000000 0.000000
vn 1.000000 -0.000000 0.000000
vn 1.000000 -0.000000 0.000000
vn 1.000000 -0.000000 0.000000
vn 1.000000 -0.000000 0.000000
vn 1.000000 -0.000000 0.000000
vn 1.000000 -0.000000 0.000000
vn 1.000000 -0.000000 0.000000
vn 1.000000 -0.000000 0.000000
vn 1.000000 -0.000000 0.000000
vn 1.000000 -0.000000 0.000000
vn -1.000000 0.000000 -0.000000
vn -1.000000 0.000000 -0.000000
vn -1.000000 0.000000 -0.000000
vn -1.000000 0.000000 -0.000000
vn -1.000000 0.000000 -0.000000
vn -1.000000 0.000000 -0.000000
vn -1.000000 0.000000 -0.000000
vn -1.000000 0.000000 -0.000000
vn -1.000000 0.000000 -0.000000
vn -1.000000 0.000000 -0.000000
vn -1.000000 0.000000 -0.000000
vn -1.000000 0.000000 -0.000000
vn -1.000000 0.000000 -0.000000
vn -1.000000 0.000000 -0.000000
vn -1.000000 0.000000 -0.000000
vn -1.000000 0.000000 -0.000000
vn -1.000000 0.000000 -0.000000
vn -1.000000 0.000000 -0.000000
vn -0.342020 0.000000 -0.939693
vn -0.342020 0.000000 -0.939693
vn -0.342020 0.000000 -0.939693
vn -0.342020 0.000000 -0.939693
vn -0.342020 0.000000 -0.939693
vn -0.342020 0.000000 -0.939693
vn -0.342020 0.000000 -0.939693
vn -0.342020 0.000000 -0.939693
vn -0.342020 0.000000 -0.939693
vn -0.342020 0.000000 -0.939693
vn -0.342020 0.000000 -0.939693
vn -0.342020 0.000000 -0.939693
vn -0.342020 0.000000 -0.939693
vn -0.342020 0.000000 -0.939693
vn -0.342020 0.000000 -0.939693
vn -0.342020 0.000000 -0.939693
vn -0.342020 0.000000 -0.939693
vn -0.342020 0.000000 -0.939693
vn -0.342020 -0.939693 -0.000000
vn -0.342020 -0.939693 -0.000000
vn -0.446058 -0.770877 -0.454731
vn -0.419569 -0.858784 -0.294027
vn -0.456216 -0.682463 -0.571062
vn -0.457453 -0.648554 -0.608370
vn -0.435935 -0.383703 -0.814084
vn -0.402872 -0.218011 -0.888912
vn -0.402880 -0.218042 -0.888901
vn -0.402876 -0.218028 -0.888907
vn -0.457453 -0.648553 -0.608371
vn -0.446060 -0.770869 -0.454744
vn -0.402888 -0.218077 -0.888889
vn -0.402885 -0.218067 -0.888893
vn -0.402883 -0.218055 -0.888897
vn -0.457454 -0.648549 -0.608375
vn -0.457454 -0.648550 -0.608374
vn -0.446064 -0.770850 -0.454772
vn -0.446063 -0.770855 -0.454764
vn -0.342020 -0.939693 -0.000000
vn -0.402894 -0.218102 -0.888880
vn -0.402892 -0.218095 -0.888883
vn -0.402890 -0.218086 -0.888886
vn -0.457454 -0.648544 -0.608380
vn -0.457454 -0.648546 -0.608378
vn -0.446066 -0.770840 -0.454787
vn -0.446065 -0.770843 -0.454783
vn -0.342020 -0.939693 -0.000000
vn -0.402899 -0.218124 -0.888872
vn -0.402897 -0.218117 -0.888875
vn -0.402896 -0.218110 -0.888877
vn -0.457454 -0.648539 -0.608385
vn -0.457454 -0.648541 -0.608383
vn -0.446067 -0.770833 -0.454797
vn -0.446067 -0.770835 -0.454794
vn -0.342020 -0.939693 -0.000000
vn -0.402903 -0.218140 -0.888867
vn -0.402901 -0.218132 -0.888870
vn -0.457454 -0.648536 -0.608389
vn -0.457454 -0.648537 -0.608387
vn -0.446068 -0.770829 -0.454803
vn -0.446068 -0.770831 -0.454800
vn -0.342020 -0.939693 -0.000000
vn -0.402909 -0.218168 -0.888857
vn -0.402907 -0.218157 -0.888861
vn -0.402905 -0.218148 -0.888864
vn -0.457454 -0.648531 -0.608394
vn -0.457454 -0.648533 -0.608392
vn -0.446069 -0.770821 -0.454816
vn -0.446069 -0.770824 -0.454811
vn -0.342020 -0.939693 -0.000000
vn -0.402918 -0.218206 -0.888844
vn -0.402915 -0.218192 -0.888849
vn -0.402912 -0.218179 -0.888853
vn -0.457454 -0.648527 -0.608398
vn -0.457454 -0.648528 -0.608397
vn -0.446072 -0.770806 -0.454839
vn -0.446071 -0.770812 -0.454830
vn -0.342020 -0.939693 -0.000000
vn -0.402922 -0.218222 -0.888838
vn -0.436008 -0.384161 -0.813828
vn -0.457453 -0.648525 -0.608401
vn -0.456208 -0.682610 -0.570893
vn -0.446074 -0.770791 -0.454862
vn -0.419597 -0.858724 -0.294164
vn -0.342020 -0.939693 0.000000
vn -0.446073 -0.770799 -0.454849
vn -0.457454 -0.648526 -0.608400
vn -0.446061 -0.770861 -0.454755
vn -0.446065 -0.770846 -0.454778
vn -0.446067 -0.770837 -0.454791
vn -0.457454 -0.648542 -0.608382
vn -0.446068 -0.770827 -0.454806
vn -0.446070 -0.770817 -0.454822
vn -0.457453 -0.648552 -0.608373
vn -0.457454 -0.648547 -0.608377
vn -0.457454 -0.648534 -0.608390
vn -0.457454 -0.648530 -0.608395
vn -0.342020 -0.939693 -0.000000
vn -0.342020 -0.939693 -0.000000
vn -0.342020 -0.939693 -0.000000
vn -0.342020 -0.939693 -0.000000
vn -0.342020 -0.939693 -0.000000
vn -0.342020 -0.939693 -0.000000
vn -0.342020 -0.939693 -0.000000
vn -0.342020 -0.939693 -0.000000
vn -0.342020 -0.939693 -0.000000
vn -0.342020 -0.000000 0.939693
vn -0.342020 -0.000000 0.939693
vn -0.427117 -0.332830 0.840711
vn -0.445185 -0.447719 0.775473
vn -0.457643 -0.628714 0.628714
vn -0.445185 -0.775473 0.447719
vn -0.427117 -0.840711 0.332830
vn -0.342020 -0.939693 0.000000
vn -0.342020 -0.939693 0.000000
vn -0.342020 -0.939693 0.000000
vn -0.342020 -0.939693 0.000000
vn -0.342020 -0.939693 0.000000
vn -0.342020 -0.939693 0.000000
vn -0.342020 -0.939693 0.000000
vn -0.342020 -0.939693 0.000000
vn -0.342020 -0.939693 -0.000000
vn -0.445185 -0.775473 0.447719
vn -0.445185 -0.447719 0.775473
vn -0.342020 -0.000000 0.939693
vn -0.342020 -0.000000 0.939693
vn -0.342020 -0.000000 0.939693
vn -0.342020 -0.000000 0.939693
vn -0.342020 -0.000000 0.939693
vn -0.342020 -0.000000 0.939693
vn -0.342020 -0.000000 0.939693
vn -0.342020 -0.000000 0.939693
vn -0.342020 -0.000000 0.939693
vn -0.342020 -0.000000 0.939693
vn -0.342020 -0.000000 0.939693
vn -0.342020 -0.000000 0.939693
vn -0.342020 -0.000000 0.939693
vn -0.342020 -0.000000 0.939693
vn -0.342020 -0.000000 0.939693
vn -0.342020 -0.000000 0.939693
vn -0.342020 -0.000000 0.939693
vn -0.342020 -0.000000 0.939693
vn -0.342020 -0.000000 0.939693
vn -0.342020 -0.000000 0.939693
vn -0.342020 -0.000000 0.939693
vn -0.342020 -0.000000 0.939693
vn -0.342020 -0.000000 0.939693
vn -0.342020 -0.000000 0.939693
vn -0.342020 -0.000000 0.939693
vn -0.342020 0.939693 0.000000
vn -0.342020 0.939693 0.000000
vn -0.427117 0.840711 0.332830
vn -0.445185 0.775473 0.447719
vn -0.457643 0.628714 0.628714
vn -0.445185 0.447719 0.775473
vn -0.427117 0.332830 0.840711
vn -0.342020 0.000000 0.939693
vn -0.342020 0.000000 0.939693
vn -0.342020 0.000000 0.939693
vn -0.342020 0.000000 0.939693
vn -0.342020 0.000000 0.939693
vn -0.342020 0.000000 0.939693
vn -0.342020 0.000000 0.939693
vn -0.342020 0.000000 0.939693
vn -0.342020 0.000000 0.939693
vn -0.445185 0.447719 0.775473
vn -0.445185 0.775473 0.447719
vn -0.342020 0.939693 0.000000
vn -0.342020 0.939693 0.000000
vn -0.342020 0.939693 0.000000
vn -0.342020 0.939693 0.000000
vn -0.342020 0.939693 0.000000
vn -0.342020 0.939693 0.000000
vn -0.342020 0.939693 0.000000
vn -0.342020 0.939693 0.000000
vn -0.342020 0.939693 0.000000
vn -0.342020 0.939693 0.000000
vn -0.342020 0.939693 0.000000
vn -0.342020 0.939693 0.000000
vn -0.342020 0.939693 0.000000
vn -0.342020 0.939693 0.000000
vn -0.342020 0.939693 0.000000
vn -0.342020 0.939693 0.000000
vn -0.342020 0.939693 0.000000
vn -0.342020 0.939693 0.000000
vn -0.342020 0.939693 0.000000
vn -0.342020 0.939693 0.000000
vn -0.342020 0.939693 0.000000
vn -0.342020 0.939693 0.000000
vn -0.342020 0.939693 0.000000
vn -0.342020 0.939693 0.000000
vn -0.342020 0.939693 0.000000
vn -0.446058 0.454731 -0.770877
vn -0.419569 0.294027 -0.858784
vn -0.456216 0.571062 -0.682463
vn -0.457453 0.608370 -0.648554
vn -0.435935 0.814084 -0.383703
vn -0.402872 0.888912 -0.218011
vn -0.402880 0.888901 -0.218042
vn -0.402876 0.888907 -0.218028
vn -0.457453 0.608371 -0.648553
vn -0.446060 0.454744 -0.770869
vn -0.402888 0.888889 -0.218077
vn -0.402885 0.888893 -0.218067
vn -0.402883 0.888897 -0.218055
vn -0.457454 0.608375 -0.648549
vn -0.457454 0.608374 -0.648550
vn -0.446064 0.454772 -0.770850
vn -0.446063 0.454764 -0.770855
vn -0.402894 0.888880 -0.218102
vn -0.402892 0.888883 -0.218095
vn -0.402890 0.888886 -0.218086
vn -0.457454 0.608380 -0.648544
vn -0.457454 0.608378 -0.648546
vn -0.446066 0.454787 -0.770840
vn -0.446065 0.454783 -0.770843
vn -0.402899 0.888872 -0.218124
vn -0.402897 0.888875 -0.218117
vn -0.402896 0.888877 -0.218110
vn -0.457454 0.608385 -0.648539
vn -0.457454 0.608383 -0.648541
vn -0.446067 0.454797 -0.770833
vn -0.446067 0.454794 -0.770835
vn -0.402903 0.888867 -0.218140
vn -0.402901 0.888870 -0.218132
vn -0.457454 0.608389 -0.648536
vn -0.457454 0.608387 -0.648537
vn -0.446068 0.454803 -0.770829
vn -0.446068 0.454800 -0.770831
vn -0.402909 0.888857 -0.218168
vn -0.402907 0.888861 -0.218157
vn -0.402905 0.888864 -0.218148
vn -0.457454 0.608394 -0.648531
vn -0.457454 0.608392 -0.648533
vn -0.446069 0.454816 -0.770821
vn -0.446069 0.454811 -0.770824
vn -0.402918 0.888844 -0.218206
vn -0.402915 0.888849 -0.218192
vn -0.402912 0.888853 -0.218179
vn -0.457454 0.608398 -0.648527
vn -0.457454 0.608397 -0.648528
vn -0.446072 0.454839 -0.770806
vn -0.446071 0.454830 -0.770812
vn -0.402922 0.888838 -0.218222
vn -0.436008 0.813828 -0.384161
vn -0.457453 0.608401 -0.648525
vn -0.456208 0.570893 -0.682610
vn -0.446074 0.454862 -0.770791
vn -0.419597 0.294164 -0.858724
vn -0.446073 0.454849 -0.770799
vn -0.457454 0.608400 -0.648526
vn -0.446061 0.454755 -0.770861
vn -0.446065 0.454778 -0.770846
vn -0.446067 0.454791 -0.770837
vn -0.457454 0.608382 -0.648542
vn -0.446068 0.454806 -0.770827
vn -0.446070 0.454822 -0.770817
vn -0.457453 0.608373 -0.648552
vn -0.457454 0.608377 -0.648547
vn -0.457454 0.608390 -0.648534
vn -0.457454 0.608395 -0.648530
usemtl Opaque(28,120,28)
f 2/1/1 15/2/2 1/3/3
f 1/3/3 15/2/2 16/4/4
f 1/3/3 16/4/4 17/5/5
f 15/2/2 2/1/1 6/6/6
f 6/6/6 2/1/1 3/7/7
f 6/6/6 3/7/7 5/8/8
f 5/8/8 3/7/7 4/9/9
f 6/6/6 7/10/10 15/2/2
f 15/2/2 7/10/10 14/11/11
f 14/11/11 7/10/10 10/12/12
f 14/11/11 10/12/12 11/13/13
f 7/10/10 8/14/14 10/12/12
f 10/12/12 8/14/14 9/15/15
f 12/16/16 13/17/17 11/13/13
f 11/13/13 13/17/17 14/11/11
f 17/5/5 18/18/18 1/3/3
f 20/19/19 24/20/20 19/21/21
f 19/21/21 24/20/20 33/22/22
f 19/21/21 33/22/22 34/23/23
f 21/24/24 22/25/25 20/19/19
f 20/19/19 22/25/25 23/26/26
f 20/19/19 23/26/26 24/20/20
f 33/22/22 24/20/20 32/27/27
f 32/27/27 24/20/20 25/28/28
f 32/27/27 25/28/28 29/29/29
f 29/29/29 25/28/28 28/30/30
f 28/30/30 25/28/28 26/31/31
f 28/30/30 26/31/31 27/32/32
f 30/33/33 31/34/34 29/29/29
f 29/29/29 31/34/34 32/27/27
f 34/23/23 35/35/35 19/21/21
f 19/21/21 35/35/35 36/36/36
f 20/37/37 19/38/38 50/39/39
f 50/39/39 19/38/38 37/40/40
f 50/39/39 37/40/40 49/41/41
f 49/41/41 37/40/40 38/42/42
f 49/41/41 38/42/42 48/43/43
f 48/43/43 38/42/42 39/44/44
f 48/43/43 39/44/44 47/45/45
f 47/45/45 39/44/44 40/46/46
f 47/45/45 40/46/46 46/47/47
f 46/47/47 40/46/46 41/48/48
f 46/47/47 41/48/48 45/49/49
f 45/49/49 41/48/48 42/50/50
f 45/49/49 42/50/50 44/51/51
f 44/51/51 42/50/50 43/52/52
f 44/51/51 43/52/52 1/53/53
f 1/53/53 43/52/52 2/54/54
f 57/55/55 24/56/56 58/57/57
f 58/57/57 24/56/56 23/58/58
f 58/57/57 23/58/58 22/59/59
f 58/57/57 22/59/59 74/60/60
f 74/60/60 22/59/59 21/61/61
f 74/60/60 21/61/61 59/62/62
f 59/62/62 21/61/61 20/63/37
f 59/62/62 20/63/37 50/64/39
f 49/65/41 75/66/63 50/64/39
f 50/64/39 75/66/63 80/67/64
f 50/64/39 80/67/64 59/62/62
f 59/62/62 80/67/64 79/68/65
f 59/62/62 79/68/65 74/60/60
f 74/60/60 79/68/65 78/69/66
f 74/60/60 78/69/66 58/57/57
f 58/57/57 78/69/66 57/55/55
f 48/70/43 81/71/67 49/65/41
f 49/65/41 81/71/67 86/72/68
f 49/65/41 86/72/68 61/73/69
f 61/73/69 86/72/68 85/74/70
f 61/73/69 85/74/70 117/75/71
f 117/75/71 85/74/70 84/76/72
f 117/75/71 84/76/72 60/77/73
f 60/77/73 84/76/72 56/78/74
f 60/77/73 56/78/74 57/55/55
f 47/79/45 65/80/75 48/70/43
f 48/70/43 65/80/75 91/81/76
f 48/70/43 91/81/76 63/82/77
f 63/82/77 91/81/76 90/83/78
f 63/82/77 90/83/78 118/84/79
f 118/84/79 90/83/78 89/85/80
f 118/84/79 89/85/80 62/86/81
f 62/86/81 89/85/80 55/87/82
f 62/86/81 55/87/82 56/78/74
f 46/88/47 67/89/83 47/79/45
f 47/79/45 67/89/83 95/90/84
f 47/79/45 95/90/84 116/91/85
f 116/91/85 95/90/84 94/92/86
f 116/91/85 94/92/86 115/93/87
f 115/93/87 94/92/86 93/94/88
f 115/93/87 93/94/88 64/95/89
f 64/95/89 93/94/88 54/96/90
f 64/95/89 54/96/90 55/87/82
f 45/97/49 96/98/91 46/88/47
f 46/88/47 96/98/91 101/99/92
f 46/88/47 101/99/92 67/89/83
f 67/89/83 101/99/92 100/100/93
f 67/89/83 100/100/93 92/101/94
f 92/101/94 100/100/93 99/102/95
f 92/101/94 99/102/95 66/103/96
f 66/103/96 99/102/95 53/104/97
f 66/103/96 53/104/97 54/96/90
f 44/105/51 102/106/98 45/97/49
f 45/97/49 102/106/98 107/107/99
f 45/97/49 107/107/99 69/108/100
f 69/108/100 107/107/99 106/109/101
f 69/108/100 106/109/101 119/110/102
f 119/110/102 106/109/101 105/111/103
f 119/110/102 105/111/103 68/112/104
f 68/112/104 105/111/103 52/113/105
f 68/112/104 52/113/105 53/104/97
f 1/114/53 73/115/106 44/105/51
f 44/105/51 73/115/106 112/116/107
f 44/105/51 112/116/107 71/117/108
f 71/117/108 112/116/107 111/118/109
f 71/117/108 111/118/109 120/119/110
f 120/119/110 111/118/109 110/120/111
f 120/119/110 110/120/111 70/121/112
f 70/121/112 110/120/111 51/122/113
f 70/121/112 51/122/113 52/113/105
f 73/115/106 1/114/53 114/123/114
f 114/123/114 1/114/53 18/124/115
f 114/123/114 18/124/115 113/125/116
f 113/125/116 18/124/115 17/126/117
f 113/125/116 17/126/117 72/127/118
f 72/127/118 17/126/117 16/128/119
f 72/127/118 16/128/119 15/129/120
f 15/129/120 51/122/113 72/127/118
f 72/127/118 51/122/113 109/130/121
f 72/127/118 109/130/121 108/131/122
f 108/131/122 109/130/121 111/118/109
f 108/131/122 111/118/109 112/116/107
f 60/77/73 57/55/55 77/132/123
f 77/132/123 57/55/55 78/69/66
f 77/132/123 78/69/66 79/68/65
f 75/66/63 49/65/41 61/73/69
f 62/86/81 56/78/74 83/133/124
f 83/133/124 56/78/74 84/76/72
f 83/133/124 84/76/72 85/74/70
f 81/71/67 48/70/43 63/82/77
f 64/95/89 55/87/82 88/134/125
f 88/134/125 55/87/82 89/85/80
f 88/134/125 89/85/80 90/83/78
f 47/79/45 116/91/85 65/80/75
f 65/80/75 116/91/85 115/93/87
f 65/80/75 115/93/87 87/135/126
f 87/135/126 115/93/87 64/95/89
f 87/135/126 64/95/89 88/134/125
f 54/96/90 93/94/88 66/103/96
f 66/103/96 93/94/88 94/92/86
f 66/103/96 94/92/86 92/101/94
f 92/101/94 94/92/86 95/90/84
f 92/101/94 95/90/84 67/89/83
f 68/112/104 53/104/97 98/136/127
f 98/136/127 53/104/97 99/102/95
f 98/136/127 99/102/95 100/100/93
f 96/98/91 45/97/49 69/108/100
f 70/121/112 52/113/105 104/137/128
f 104/137/128 52/113/105 105/111/103
f 104/137/128 105/111/103 106/109/101
f 102/106/98 44/105/51 71/117/108
f 79/68/65 80/67/64 76/138/129
f 76/138/129 80/67/64 75/66/63
f 76/138/129 75/66/63 117/75/71
f 117/75/71 75/66/63 61/73/69
f 60/77/73 77/132/123 76/138/129
f 76/138/129 77/132/123 79/68/65
f 60/77/73 76/138/129 117/75/71
f 85/74/70 86/72/68 82/139/130
f 82/139/130 86/72/68 81/71/67
f 82/139/130 81/71/67 118/84/79
f 118/84/79 81/71/67 63/82/77
f 62/86/81 83/133/124 82/139/130
f 82/139/130 83/133/124 85/74/70
f 62/86/81 82/139/130 118/84/79
f 90/83/78 91/81/76 87/135/126
f 87/135/126 91/81/76 65/80/75
f 87/135/126 88/134/125 90/83/78
f 100/100/93 101/99/92 97/140/131
f 97/140/131 101/99/92 96/98/91
f 97/140/131 96/98/91 119/110/102
f 119/110/102 96/98/91 69/108/100
f 68/112/104 98/136/127 97/140/131
f 97/140/131 98/136/127 100/100/93
f 68/112/104 97/140/131 119/110/102
f 106/109/101 107/107/99 103/141/132
f 103/141/132 107/107/99 102/106/98
f 103/141/132 102/106/98 120/119/110
f 120/119/110 102/106/98 71/117/108
f 70/121/112 104/137/128 103/141/132
f 103/141/132 104/137/128 106/109/101
f 70/121/112 103/141/132 120/119/110
f 112/116/107 73/115/106 108/131/122
f 108/131/122 73/115/106 113/125/116
f 108/131/122 113/125/116 72/127/118
f 110/120/111 111/118/109 109/130/121
f 114/123/114 113/125/116 73/115/106
f 51/122/113 110/120/111 109/130/121
f 24/142/56 57/143/55 25/144/133
f 25/144/133 57/143/55 127/145/134
f 127/145/134 57/143/55 56/146/74
f 127/145/134 56/146/74 126/147/135
f 126/147/135 56/146/74 55/148/82
f 126/147/135 55/148/82 125/149/136
f 125/149/136 55/148/82 54/150/90
f 125/149/136 54/150/90 124/151/137
f 124/151/137 54/150/90 53/152/97
f 124/151/137 53/152/97 123/153/138
f 123/153/138 53/152/97 52/154/105
f 123/153/138 52/154/105 122/155/139
f 122/155/139 52/154/105 51/156/113
f 122/155/139 51/156/113 121/157/140
f 121/157/140 51/156/113 15/158/120
f 121/157/140 15/158/120 14/159/141
f 134/160/142 28/161/143 136/162/144
f 136/162/144 28/161/143 27/163/145
f 136/162/144 27/163/145 137/164/146
f 137/164/146 27/163/145 26/165/147
f 137/164/146 26/165/147 135/166/148
f 135/166/148 26/165/147 127/167/149
f 135/166/148 127/167/149 126/168/150
f 26/165/147 25/169/151 127/167/149
f 126/168/150 125/170/152 135/166/148
f 135/166/148 125/170/152 124/171/153
f 135/166/148 124/171/153 123/172/154
f 123/172/154 122/173/155 135/166/148
f 135/166/148 122/173/155 121/174/156
f 135/166/148 121/174/156 14/175/157
f 14/175/157 13/176/158 135/166/148
f 135/166/148 13/176/158 137/164/146
f 13/176/158 12/177/159 137/164/146
f 137/164/146 12/177/159 136/162/144
f 11/178/160 128/179/161 12/177/159
f 12/177/159 128/179/161 136/162/144
f 128/179/161 129/180/162 136/162/144
f 136/162/144 129/180/162 130/181/163
f 136/162/144 130/181/163 131/182/164
f 131/182/164 132/183/165 136/162/144
f 136/162/144 132/183/165 133/184/166
f 136/162/144 133/184/166 134/160/142
f 29/185/167 28/186/168 144/187/169
f 144/187/169 28/186/168 134/188/170
f 144/187/169 134/188/170 143/189/171
f 143/189/171 134/188/170 133/190/172
f 143/189/171 133/190/172 142/191/173
f 142/191/173 133/190/172 132/192/174
f 142/191/173 132/192/174 141/193/175
f 141/193/175 132/192/174 131/194/176
f 141/193/175 131/194/176 140/195/177
f 140/195/177 131/194/176 130/196/178
f 140/195/177 130/196/178 139/197/179
f 139/197/179 130/196/178 129/198/180
f 139/197/179 129/198/180 138/199/181
f 138/199/181 129/198/180 128/200/182
f 138/199/181 128/200/182 10/201/183
f 10/201/183 128/200/182 11/202/184
f 151/203/185 32/204/186 153/205/187
f 153/205/187 32/204/186 31/206/188
f 153/205/187 31/206/188 154/207/189
f 154/207/189 31/206/188 30/208/190
f 154/207/189 30/208/190 152/209/191
f 152/209/191 30/208/190 144/210/192
f 152/209/191 144/210/192 143/211/193
f 30/208/190 29/212/194 144/210/192
f 143/211/193 142/213/195 152/209/191
f 152/209/191 142/213/195 141/214/196
f 152/209/191 141/214/196 140/215/197
f 140/215/197 139/216/198 152/209/191
f 152/209/191 139/216/198 138/217/199
f 152/209/191 138/217/199 10/218/200
f 10/218/200 9/219/201 152/209/191
f 152/209/191 9/219/201 154/207/189
f 9/219/201 8/220/202 154/207/189
f 154/207/189 8/220/202 153/205/187
f 7/221/203 145/222/204 8/220/202
f 8/220/202 145/222/204 153/205/187
f 145/222/204 146/223/205 153/205/187
f 153/205/187 146/223/205 147/224/206
f 153/205/187 147/224/206 148/225/207
f 148/225/207 149/226/208 153/205/187
f 153/205/187 149/226/208 150/227/209
f 153/205/187 150/227/209 151/203/185
f 33/228/210 32/229/211 161/230/212
f 161/230/212 32/229/211 151/231/213
f 161/230/212 151/231/213 160/232/214
f 160/232/214 151/231/213 150/233/215
f 160/232/214 150/233/215 159/234/216
f 159/234/216 150/233/215 149/235/217
f 159/234/216 149/235/217 158/236/218
f 158/236/218 149/235/217 148/237/219
f 158/236/218 148/237/219 157/238/220
f 157/238/220 148/237/219 147/239/221
f 157/238/220 147/239/221 156/240/222
f 156/240/222 147/239/221 146/241/223
f 156/240/222 146/241/223 155/242/224
f 155/242/224 146/241/223 145/243/225
f 155/242/224 145/243/225 6/244/226
f 6/244/226 145/243/225 7/245/227
f 37/246/40 19/247/38 162/248/228
f 162/248/228 19/247/38 36/249/229
f 162/248/228 36/249/229 35/250/230
f 162/248/228 35/250/230 178/251/231
f 178/251/231 35/250/230 34/252/232
f 178/251/231 34/252/232 163/253/233
f 163/253/233 34/252/232 33/254/210
f 163/253/233 33/254/210 161/255/212
f 160/256/214 179/257/234 161/255/212
f 161/255/212 179/257/234 184/258/235
f 161/255/212 184/258/235 163/253/233
f 163/253/233 184/258/235 183/259/236
f 163/253/233 183/259/236 178/251/231
f 178/251/231 183/259/236 182/260/237
f 178/251/231 182/260/237 162/248/228
f 162/248/228 182/260/237 37/246/40
f 159/261/216 185/262/238 160/256/214
f 160/256/214 185/262/238 190/263/239
f 160/256/214 190/263/239 165/264/240
f 165/264/240 190/263/239 189/265/241
f 165/264/240 189/265/241 221/266/242
f 221/266/242 189/265/241 188/267/243
f 221/266/242 188/267/243 164/268/244
f 164/268/244 188/267/243 38/269/42
f 164/268/244 38/269/42 37/246/40
f 158/270/218 169/271/245 159/261/216
f 159/261/216 169/271/245 195/272/246
f 159/261/216 195/272/246 167/273/247
f 167/273/247 195/272/246 194/274/248
f 167/273/247 194/274/248 222/275/249
f 222/275/249 194/274/248 193/276/250
f 222/275/249 193/276/250 166/277/251
f 166/277/251 193/276/250 39/278/44
f 166/277/251 39/278/44 38/269/42
f 157/279/220 171/280/252 158/270/218
f 158/270/218 171/280/252 199/281/253
f 158/270/218 199/281/253 220/282/254
f 220/282/254 199/281/253 198/283/255
f 220/282/254 198/283/255 219/284/256
f 219/284/256 198/283/255 197/285/257
f 219/284/256 197/285/257 168/286/258
f 168/286/258 197/285/257 40/287/46
f 168/286/258 40/287/46 39/278/44
f 156/288/222 200/289/259 157/279/220
f 157/279/220 200/289/259 205/290/260
f 157/279/220 205/290/260 171/280/252
f 171/280/252 205/290/260 204/291/261
f 171/280/252 204/291/261 196/292/262
f 196/292/262 204/291/261 203/293/263
f 196/292/262 203/293/263 170/294/264
f 170/294/264 203/293/263 41/295/48
f 170/294/264 41/295/48 40/287/46
f 155/296/224 206/297/265 156/288/222
f 156/288/222 206/297/265 211/298/266
f 156/288/222 211/298/266 173/299/267
f 173/299/267 211/298/266 210/300/268
f 173/299/267 210/300/268 223/301/269
f 223/301/269 210/300/268 209/302/270
f 223/301/269 209/302/270 172/303/271
f 172/303/271 209/302/270 42/304/50
f 172/303/271 42/304/50 41/295/48
f 6/305/226 177/306/272 155/296/224
f 155/296/224 177/306/272 216/307/273
f 155/296/224 216/307/273 175/308/274
f 175/308/274 216/307/273 215/309/275
f 175/308/274 215/309/275 224/310/276
f 224/310/276 215/309/275 214/311/277
f 224/310/276 214/311/277 174/312/278
f 174/312/278 214/311/277 43/313/52
f 174/312/278 43/313/52 42/304/50
f 177/306/272 6/305/226 218/314/279
f 218/314/279 6/305/226 5/315/280
f 218/314/279 5/315/280 217/316/281
f 217/316/281 5/315/280 4/317/282
f 217/316/281 4/317/282 176/318/283
f 176/318/283 4/317/282 3/319/284
f 176/318/283 3/319/284 2/320/54
f 2/320/54 43/313/52 176/318/283
f 176/318/283 43/313/52 213/321/285
f 176/318/283 213/321/285 212/322/286
f 212/322/286 213/321/285 215/309/275
f 212/322/286 215/309/275 216/307/273
f 164/268/244 37/246/40 181/323/287
f 181/323/287 37/246/40 182/260/237
f 181/323/287 182/260/237 183/259/236
f 179/257/234 160/256/214 165/264/240
f 166/277/251 38/269/42 187/324/288
f 187/324/288 38/269/42 188/267/243
f 187/324/288 188/267/243 189/265/241
f 185/262/238 159/261/216 167/273/247
f 168/286/258 39/278/44 192/325/289
f 192/325/289 39/278/44 193/276/250
f 192/325/289 193/276/250 194/274/248
f 158/270/218 220/282/254 169/271/245
f 169/271/245 220/282/254 219/284/256
f 169/271/245 219/284/256 191/326/290
f 191/326/290 219/284/256 168/286/258
f 191/326/290 168/286/258 192/325/289
f 40/287/46 197/285/257 170/294/264
f 170/294/264 197/285/257 198/283/255
f 170/294/264 198/283/255 196/292/262
f 196/292/262 198/283/255 199/281/253
f 196/292/262 199/281/253 171/280/252
f 172/303/271 41/295/48 202/327/291
f 202/327/291 41/295/48 203/293/263
f 202/327/291 203/293/263 204/291/261
f 200/289/259 156/288/222 173/299/267
f 174/312/278 42/304/50 208/328/292
f 208/328/292 42/304/50 209/302/270
f 208/328/292 209/302/270 210/300/268
f 206/297/265 155/296/224 175/308/274
f 183/259/236 184/258/235 180/329/293
f 180/329/293 184/258/235 179/257/234
f 180/329/293 179/257/234 221/266/242
f 221/266/242 179/257/234 165/264/240
f 164/268/244 181/323/287 180/329/293
f 180/329/293 181/323/287 183/259/236
f 164/268/244 180/329/293 221/266/242
f 189/265/241 190/263/239 186/330/294
f 186/330/294 190/263/239 185/262/238
f 186/330/294 185/262/238 222/275/249
f 222/275/249 185/262/238 167/273/247
f 166/277/251 187/324/288 186/330/294
f 186/330/294 187/324/288 189/265/241
f 166/277/251 186/330/294 222/275/249
f 194/274/248 195/272/246 191/326/290
f 191/326/290 195/272/246 169/271/245
f 191/326/290 192/325/289 194/274/248
f 204/291/261 205/290/260 201/331/295
f 201/331/295 205/290/260 200/289/259
f 201/331/295 200/289/259 223/301/269
f 223/301/269 200/289/259 173/299/267
f 172/303/271 202/327/291 201/331/295
f 201/331/295 202/327/291 204/291/261
f 172/303/271 201/331/295 223/301/269
f 210/300/268 211/298/266 207/332/296
f 207/332/296 211/298/266 206/297/265
f 207/332/296 206/297/265 224/310/276
f 224/310/276 206/297/265 175/308/274
f 174/312/278 208/328/292 207/332/296
f 207/332/296 208/328/292 210/300/268
f 174/312/278 207/332/296 224/310/276
f 216/307/273 177/306/272 212/322/286
f 212/322/286 177/306/272 217/316/281
f 212/322/286 217/316/281 176/318/283
f 214/311/277 215/309/275 213/321/285
f 218/314/279 217/316/281 177/306/272
f 43/313/52 214/311/277 213/321/285
# 224 vertices
# 332 texture params
# 296 normals
# 444 facets

# 1 groups
